<?xml version="1.0" encoding="utf-8"?>
<!-- Generator: Adobe Illustrator 16.0.0, SVG Export Plug-In . SVG Version: 6.00 Build 0)  -->
<!DOCTYPE svg PUBLIC "-//W3C//DTD SVG 1.1//EN" "http://www.w3.org/Graphics/SVG/1.1/DTD/svg11.dtd">
<svg version="1.1" id="Layer_1" xmlns="http://www.w3.org/2000/svg" xmlns:xlink="http://www.w3.org/1999/xlink" x="0px" y="0px"
	 width="1600px" height="662px" viewBox="0 0 1600 662" enable-background="new 0 0 1600 662" xml:space="preserve">
<g>
	<defs>
		<rect id="SVGID_1_" x="-174.409" y="-954" width="1984.363" height="2568"/>
	</defs>
	<clipPath id="SVGID_2_">
		<use xlink:href="#SVGID_1_"  overflow="visible"/>
	</clipPath>
	<path clip-path="url(#SVGID_2_)" fill="#E6E7E8" d="M1468.136,415.066c10.155,0,18.381-8.23,18.381-18.382
		c0-10.15-8.226-18.384-18.381-18.384c-10.152,0-18.382,8.233-18.382,18.384C1449.754,406.836,1457.983,415.066,1468.136,415.066"/>
	<path clip-path="url(#SVGID_2_)" fill="#E6E7E8" d="M1468.136,299.681c10.155,0,18.381-8.229,18.381-18.379
		c0-10.154-8.226-18.386-18.381-18.386c-10.152,0-18.382,8.232-18.382,18.386C1449.754,291.452,1457.983,299.681,1468.136,299.681"
		/>
	<path clip-path="url(#SVGID_2_)" fill="#E6E7E8" d="M1222.154,415.066c10.154,0,18.381-8.23,18.381-18.382
		c0-10.15-8.227-18.384-18.381-18.384c-10.151,0-18.381,8.233-18.381,18.384C1203.773,406.836,1212.003,415.066,1222.154,415.066"/>
	<path clip-path="url(#SVGID_2_)" fill="#E6E7E8" d="M1222.154,299.681c10.154,0,18.381-8.229,18.381-18.379
		c0-10.154-8.227-18.386-18.381-18.386c-10.151,0-18.381,8.232-18.381,18.386C1203.773,291.452,1212.003,299.681,1222.154,299.681"
		/>
</g>
<line fill="none" stroke="#000000" stroke-width="5.6693" x1="983.319" y1="151.397" x2="983.319" y2="645.839"/>
<line fill="none" stroke="#000000" stroke-width="5.6693" x1="745.408" y1="263.529" x2="745.408" y2="524.559"/>
<line fill="none" stroke="#000000" stroke-width="5.6693" x1="507.033" y1="183.567" x2="507.033" y2="524.555"/>
<line fill="none" stroke="#000000" stroke-width="5.6693" x1="1467.675" y1="151.397" x2="1467.675" y2="488.977"/>
<line fill="none" stroke="#000000" stroke-width="5.6693" x1="1222.154" y1="151.397" x2="1222.154" y2="645.839"/>
<g>
	<path d="M73.039,175.479h-3.071l-1.44-4.512h-8.613l-1.457,4.512h-2.929l6.871-20.692h3.863L73.039,175.479z M67.72,168.449
		l-3.499-11.067l-3.499,11.067H67.72z"/>
	<path d="M76.38,159.583h2.518l0.079,2.929c0.939-1.129,1.865-1.948,2.778-2.454c0.913-0.507,1.834-0.76,2.763-0.76
		c1.646,0,2.895,0.533,3.745,1.599c0.849,1.066,1.243,2.649,1.179,4.75h-2.786c0.031-1.394-0.172-2.404-0.61-3.032
		c-0.438-0.628-1.079-0.942-1.923-0.942c-0.37,0-0.742,0.066-1.116,0.198c-0.375,0.132-0.76,0.343-1.156,0.633
		c-0.396,0.291-0.815,0.663-1.259,1.116c-0.443,0.454-0.918,1.003-1.425,1.646v10.212H76.38V159.583z"/>
	<path d="M105.907,174.893c-0.718,0.275-1.454,0.478-2.208,0.61c-0.755,0.132-1.533,0.198-2.335,0.198
		c-2.512,0-4.446-0.681-5.802-2.042c-1.356-1.361-2.035-3.351-2.035-5.969c0-1.256,0.195-2.396,0.586-3.419
		c0.39-1.024,0.939-1.9,1.646-2.628c0.707-0.728,1.551-1.29,2.533-1.686c0.981-0.396,2.063-0.594,3.246-0.594
		c0.823,0,1.593,0.058,2.312,0.174c0.717,0.116,1.403,0.306,2.058,0.57v2.628c-0.687-0.358-1.385-0.62-2.098-0.784
		c-0.713-0.163-1.449-0.245-2.209-0.245c-0.707,0-1.375,0.135-2.002,0.404c-0.628,0.269-1.18,0.657-1.655,1.164
		c-0.475,0.506-0.85,1.124-1.124,1.853c-0.274,0.728-0.412,1.551-0.412,2.47c0,1.921,0.467,3.359,1.401,4.314
		c0.934,0.956,2.229,1.433,3.887,1.433c0.75,0,1.475-0.084,2.177-0.253s1.38-0.422,2.035-0.76V174.893z"/>
	<path d="M124.161,175.479h-2.755V165.33c0-1.224-0.229-2.14-0.688-2.747c-0.459-0.606-1.116-0.91-1.971-0.91
		c-0.37,0-0.715,0.05-1.037,0.15c-0.322,0.101-0.657,0.274-1.005,0.522c-0.348,0.248-0.728,0.583-1.14,1.005
		c-0.412,0.422-0.887,0.95-1.425,1.583v10.544h-2.755v-22.371h2.755v6.475l-0.095,2.501c0.433-0.517,0.857-0.952,1.274-1.306
		c0.417-0.354,0.834-0.641,1.251-0.863c0.417-0.222,0.841-0.38,1.274-0.475c0.433-0.095,0.881-0.143,1.346-0.143
		c1.583,0,2.808,0.483,3.673,1.449c0.866,0.966,1.298,2.42,1.298,4.362V175.479z"/>
	<path d="M134.626,161.863h-4.702v-2.28h7.489v13.6h4.733v2.296h-12.745v-2.296h5.225V161.863z M135.592,152.917
		c0.306,0,0.591,0.056,0.855,0.167c0.264,0.111,0.493,0.267,0.688,0.467c0.195,0.201,0.349,0.43,0.459,0.689
		c0.11,0.259,0.166,0.541,0.166,0.847c0,0.295-0.056,0.575-0.166,0.839c-0.111,0.264-0.264,0.496-0.459,0.697
		s-0.425,0.356-0.688,0.467c-0.264,0.111-0.549,0.167-0.855,0.167s-0.591-0.056-0.855-0.167c-0.264-0.111-0.494-0.266-0.689-0.467
		s-0.348-0.433-0.459-0.697c-0.111-0.264-0.166-0.543-0.166-0.839c0-0.306,0.055-0.588,0.166-0.847s0.264-0.488,0.459-0.689
		c0.195-0.2,0.425-0.356,0.689-0.467C135.001,152.973,135.286,152.917,135.592,152.917z"/>
	<path d="M159.847,175.257c-0.623,0.158-1.267,0.271-1.932,0.34c-0.665,0.069-1.34,0.103-2.026,0.103
		c-1.995,0-3.483-0.451-4.465-1.354c-0.981-0.903-1.472-2.288-1.472-4.156v-8.296h-4.449v-2.312h4.449v-4.37l2.755-0.712v5.082h7.14
		v2.312h-7.14v8.074c0,1.14,0.303,1.993,0.91,2.557c0.607,0.565,1.501,0.847,2.684,0.847c0.507,0,1.061-0.04,1.663-0.119
		c0.602-0.079,1.229-0.203,1.884-0.372V175.257z"/>
	<path d="M178.292,166.692c0,0.391-0.006,0.718-0.016,0.981c-0.011,0.264-0.026,0.512-0.047,0.744h-11.162
		c0,1.625,0.454,2.874,1.361,3.744s2.217,1.306,3.927,1.306c0.464,0,0.928-0.018,1.393-0.055c0.464-0.037,0.913-0.087,1.346-0.15
		c0.433-0.063,0.847-0.135,1.243-0.214c0.396-0.079,0.763-0.167,1.101-0.261v2.264c-0.75,0.211-1.597,0.382-2.541,0.514
		c-0.945,0.132-1.924,0.198-2.937,0.198c-1.362,0-2.533-0.185-3.515-0.554c-0.982-0.37-1.787-0.905-2.415-1.607
		s-1.092-1.562-1.393-2.581s-0.451-2.172-0.451-3.459c0-1.119,0.161-2.177,0.483-3.174c0.322-0.998,0.792-1.874,1.409-2.628
		c0.618-0.754,1.375-1.354,2.272-1.797s1.916-0.665,3.056-0.665c1.108,0,2.09,0.174,2.945,0.522c0.855,0.349,1.575,0.842,2.161,1.48
		s1.029,1.415,1.33,2.327C178.141,164.541,178.292,165.563,178.292,166.692z M175.426,166.296c0.032-0.707-0.037-1.354-0.206-1.939
		s-0.43-1.09-0.784-1.512c-0.354-0.422-0.794-0.752-1.322-0.989s-1.14-0.356-1.836-0.356c-0.602,0-1.151,0.117-1.646,0.349
		c-0.497,0.232-0.924,0.56-1.283,0.981c-0.359,0.422-0.649,0.929-0.871,1.52s-0.359,1.24-0.412,1.947H175.426z"/>
	<path d="M195.042,174.893c-0.718,0.275-1.454,0.478-2.208,0.61c-0.755,0.132-1.533,0.198-2.335,0.198
		c-2.512,0-4.446-0.681-5.802-2.042c-1.356-1.361-2.035-3.351-2.035-5.969c0-1.256,0.195-2.396,0.586-3.419
		c0.39-1.024,0.939-1.9,1.646-2.628c0.707-0.728,1.551-1.29,2.533-1.686c0.981-0.396,2.063-0.594,3.246-0.594
		c0.823,0,1.593,0.058,2.312,0.174c0.717,0.116,1.403,0.306,2.058,0.57v2.628c-0.687-0.358-1.385-0.62-2.098-0.784
		c-0.713-0.163-1.449-0.245-2.209-0.245c-0.707,0-1.375,0.135-2.002,0.404c-0.628,0.269-1.18,0.657-1.655,1.164
		c-0.475,0.506-0.85,1.124-1.124,1.853c-0.274,0.728-0.412,1.551-0.412,2.47c0,1.921,0.467,3.359,1.401,4.314
		c0.934,0.956,2.229,1.433,3.887,1.433c0.75,0,1.475-0.084,2.177-0.253s1.38-0.422,2.035-0.76V174.893z"/>
	<path d="M213.328,175.257c-0.623,0.158-1.267,0.271-1.932,0.34c-0.665,0.069-1.34,0.103-2.026,0.103
		c-1.995,0-3.483-0.451-4.465-1.354c-0.981-0.903-1.472-2.288-1.472-4.156v-8.296h-4.449v-2.312h4.449v-4.37l2.755-0.712v5.082h7.14
		v2.312h-7.14v8.074c0,1.14,0.303,1.993,0.91,2.557c0.607,0.565,1.501,0.847,2.684,0.847c0.507,0,1.061-0.04,1.663-0.119
		c0.602-0.079,1.229-0.203,1.884-0.372V175.257z"/>
	<path d="M231.123,175.479h-2.47l-0.095-2.565c-0.475,0.549-0.926,1.005-1.354,1.37c-0.427,0.364-0.853,0.657-1.274,0.879
		c-0.422,0.221-0.847,0.377-1.274,0.467c-0.428,0.089-0.879,0.135-1.354,0.135c-1.636,0-2.871-0.48-3.705-1.441
		c-0.833-0.96-1.25-2.412-1.25-4.354v-10.386h2.755v10.164c0,2.438,0.918,3.657,2.755,3.657c0.337,0,0.667-0.05,0.989-0.15
		c0.322-0.1,0.66-0.274,1.013-0.522c0.354-0.248,0.733-0.583,1.14-1.005c0.406-0.422,0.863-0.955,1.369-1.599v-10.544h2.755V175.479
		z"/>
	<path d="M236.823,159.583h2.518l0.079,2.929c0.939-1.129,1.865-1.948,2.778-2.454c0.913-0.507,1.834-0.76,2.763-0.76
		c1.646,0,2.895,0.533,3.745,1.599c0.849,1.066,1.243,2.649,1.179,4.75h-2.786c0.031-1.394-0.172-2.404-0.61-3.032
		c-0.438-0.628-1.079-0.942-1.923-0.942c-0.37,0-0.742,0.066-1.116,0.198c-0.375,0.132-0.76,0.343-1.156,0.633
		c-0.396,0.291-0.815,0.663-1.259,1.116c-0.443,0.454-0.918,1.003-1.425,1.646v10.212h-2.787V159.583z"/>
	<path d="M267.427,166.692c0,0.391-0.006,0.718-0.016,0.981c-0.011,0.264-0.026,0.512-0.047,0.744h-11.162
		c0,1.625,0.454,2.874,1.361,3.744s2.217,1.306,3.927,1.306c0.464,0,0.928-0.018,1.393-0.055c0.464-0.037,0.913-0.087,1.346-0.15
		c0.433-0.063,0.847-0.135,1.243-0.214c0.396-0.079,0.763-0.167,1.101-0.261v2.264c-0.75,0.211-1.597,0.382-2.541,0.514
		c-0.945,0.132-1.924,0.198-2.937,0.198c-1.362,0-2.533-0.185-3.515-0.554c-0.982-0.37-1.787-0.905-2.415-1.607
		s-1.092-1.562-1.393-2.581s-0.451-2.172-0.451-3.459c0-1.119,0.161-2.177,0.483-3.174c0.322-0.998,0.792-1.874,1.409-2.628
		c0.618-0.754,1.375-1.354,2.272-1.797s1.916-0.665,3.056-0.665c1.108,0,2.09,0.174,2.945,0.522c0.855,0.349,1.575,0.842,2.161,1.48
		s1.029,1.415,1.33,2.327C267.276,164.541,267.427,165.563,267.427,166.692z M264.561,166.296c0.032-0.707-0.037-1.354-0.206-1.939
		s-0.43-1.09-0.784-1.512c-0.354-0.422-0.794-0.752-1.322-0.989s-1.14-0.356-1.836-0.356c-0.602,0-1.151,0.117-1.646,0.349
		c-0.497,0.232-0.924,0.56-1.283,0.981c-0.359,0.422-0.649,0.929-0.871,1.52s-0.359,1.24-0.412,1.947H264.561z"/>
</g>
<g>
	<path d="M469.625,24.061c0,0.845-0.158,1.681-0.475,2.509c-0.316,0.829-0.807,1.57-1.472,2.225
		c-0.665,0.655-1.515,1.185-2.549,1.591c-1.035,0.406-2.27,0.609-3.705,0.609h-2.564v7.425h-2.818V17.729h5.826
		c1.024,0,2.005,0.113,2.945,0.34s1.765,0.594,2.478,1.1c0.713,0.507,1.28,1.161,1.702,1.963
		C469.414,21.935,469.625,22.911,469.625,24.061z M466.696,24.188c0-1.33-0.436-2.349-1.306-3.056
		c-0.871-0.707-2.087-1.061-3.649-1.061h-2.881v8.518h2.628c1.667,0,2.953-0.364,3.855-1.093
		C466.245,26.769,466.696,25.666,466.696,24.188z"/>
	<path d="M488.418,38.421h-2.755l-0.412-12.903l-0.174-4.956l-0.965,2.882l-3.056,8.232h-1.948l-2.913-7.916l-0.965-3.198
		l-0.063,5.177l-0.364,12.682h-2.66l1.013-20.692h3.34l2.787,7.789l0.902,2.628l0.871-2.628l2.929-7.789h3.436L488.418,38.421z"/>
	<path d="M522.979,38.421h-13.632v-2.47l5.352-5.32c0.876-0.865,1.588-1.615,2.137-2.248s0.976-1.211,1.282-1.733
		s0.512-1.016,0.618-1.48s0.158-0.966,0.158-1.504c0-0.507-0.069-0.99-0.206-1.449c-0.138-0.459-0.349-0.863-0.633-1.211
		c-0.285-0.348-0.655-0.623-1.108-0.823c-0.454-0.2-0.998-0.301-1.631-0.301c-0.876,0-1.673,0.195-2.391,0.586
		s-1.377,0.897-1.979,1.52l-1.52-1.821c0.781-0.823,1.681-1.483,2.7-1.979s2.203-0.744,3.554-0.744c0.918,0,1.755,0.137,2.509,0.412
		c0.755,0.274,1.406,0.67,1.956,1.188c0.548,0.517,0.974,1.15,1.274,1.9s0.451,1.594,0.451,2.533c0,0.792-0.105,1.525-0.317,2.2
		c-0.211,0.676-0.53,1.349-0.958,2.019c-0.428,0.67-0.966,1.364-1.615,2.082c-0.649,0.718-1.417,1.504-2.304,2.359l-3.752,3.657
		h10.054V38.421z"/>
	<path d="M533.634,33.434c0.359,0,0.699,0.069,1.021,0.206c0.322,0.137,0.602,0.327,0.839,0.57c0.238,0.243,0.425,0.525,0.562,0.847
		s0.206,0.667,0.206,1.037c0,0.359-0.069,0.696-0.206,1.013c-0.137,0.316-0.324,0.594-0.562,0.831
		c-0.237,0.237-0.517,0.425-0.839,0.562c-0.322,0.137-0.663,0.206-1.021,0.206c-0.369,0-0.712-0.069-1.029-0.206
		c-0.317-0.137-0.594-0.325-0.831-0.562c-0.238-0.237-0.425-0.515-0.562-0.831c-0.138-0.317-0.206-0.654-0.206-1.013
		c0-0.37,0.068-0.715,0.206-1.037c0.137-0.322,0.324-0.604,0.562-0.847c0.237-0.243,0.514-0.433,0.831-0.57
		C532.922,33.502,533.265,33.434,533.634,33.434z"/>
	<path d="M558.111,31.803c0,1.024-0.222,1.958-0.665,2.802s-1.053,1.57-1.829,2.177s-1.692,1.08-2.747,1.417
		c-1.056,0.338-2.195,0.507-3.419,0.507c-0.307,0-0.636-0.008-0.99-0.024s-0.705-0.037-1.053-0.063s-0.689-0.055-1.021-0.087
		c-0.332-0.032-0.63-0.069-0.894-0.111v-2.501c0.57,0.137,1.221,0.237,1.955,0.301c0.733,0.063,1.475,0.095,2.225,0.095
		c0.844,0,1.604-0.101,2.28-0.301c0.675-0.201,1.25-0.488,1.726-0.863c0.475-0.375,0.839-0.828,1.092-1.361
		c0.253-0.533,0.38-1.132,0.38-1.797c0-1.288-0.462-2.225-1.385-2.811c-0.924-0.585-2.251-0.878-3.982-0.878h-3.926V17.729h11.146
		v2.406h-8.549v5.811h1.805c0.992,0,1.958,0.09,2.897,0.269c0.939,0.18,1.775,0.494,2.509,0.942c0.733,0.449,1.325,1.05,1.773,1.805
		C557.886,29.716,558.111,30.663,558.111,31.803z"/>
</g>
<g>
	<path d="M688.254,37.645c-1.657,0.687-3.394,1.029-5.208,1.029c-2.924,0-5.169-0.874-6.737-2.62
		c-1.567-1.747-2.351-4.33-2.351-7.75c0-1.657,0.216-3.156,0.649-4.497c0.433-1.34,1.05-2.478,1.853-3.412s1.773-1.654,2.913-2.161
		c1.14-0.506,2.417-0.76,3.832-0.76c0.96,0,1.852,0.082,2.675,0.245c0.824,0.164,1.615,0.415,2.375,0.752v2.771
		c-0.75-0.412-1.525-0.726-2.327-0.942c-0.802-0.216-1.678-0.324-2.628-0.324c-0.971,0-1.85,0.182-2.636,0.546
		c-0.787,0.364-1.454,0.892-2.003,1.583s-0.971,1.536-1.267,2.533c-0.295,0.997-0.443,2.135-0.443,3.412
		c0,2.681,0.543,4.702,1.631,6.064c1.087,1.361,2.681,2.042,4.781,2.042c0.887,0,1.736-0.103,2.549-0.309
		c0.813-0.206,1.594-0.493,2.343-0.863V37.645z"/>
	<path d="M707,22.525l-5.415,14.217c-0.56,1.446-1.138,2.691-1.734,3.736s-1.248,1.902-1.955,2.573
		c-0.708,0.67-1.483,1.164-2.328,1.48c-0.844,0.316-1.789,0.475-2.834,0.475c-0.274,0-0.522-0.005-0.744-0.016
		c-0.222-0.011-0.465-0.026-0.729-0.047v-2.501c0.232,0.032,0.485,0.061,0.76,0.087s0.565,0.04,0.871,0.04
		c0.506,0,0.979-0.074,1.417-0.222c0.438-0.148,0.852-0.388,1.243-0.72c0.39-0.333,0.765-0.763,1.124-1.291s0.707-1.166,1.045-1.916
		l-6.349-15.896h3.135l4.021,10.513l0.807,2.47l0.918-2.533l3.721-10.449H707z"/>
	<path d="M723.038,37.835c-0.718,0.275-1.454,0.478-2.208,0.61c-0.755,0.132-1.533,0.198-2.335,0.198
		c-2.512,0-4.446-0.681-5.802-2.042c-1.356-1.361-2.035-3.351-2.035-5.969c0-1.256,0.195-2.396,0.586-3.419
		c0.39-1.024,0.939-1.9,1.646-2.628c0.707-0.728,1.551-1.29,2.533-1.686c0.981-0.396,2.063-0.594,3.246-0.594
		c0.823,0,1.593,0.058,2.312,0.174c0.717,0.116,1.403,0.306,2.058,0.57v2.628c-0.687-0.358-1.385-0.62-2.098-0.784
		c-0.713-0.163-1.449-0.245-2.209-0.245c-0.707,0-1.375,0.135-2.002,0.404c-0.628,0.269-1.18,0.657-1.655,1.164
		c-0.475,0.506-0.85,1.124-1.124,1.853c-0.274,0.728-0.412,1.551-0.412,2.47c0,1.921,0.467,3.359,1.401,4.314
		c0.934,0.956,2.229,1.433,3.887,1.433c0.75,0,1.475-0.084,2.177-0.253s1.38-0.422,2.035-0.76V37.835z"/>
	<path d="M733.93,18.314h-4.702V16.05h7.489v20.075h4.733v2.296h-12.745v-2.296h5.225V18.314z"/>
	<path d="M760.18,30.347c0,1.235-0.174,2.367-0.522,3.396c-0.349,1.029-0.85,1.91-1.504,2.644c-0.654,0.734-1.451,1.304-2.391,1.71
		s-2.005,0.61-3.198,0.61c-1.14,0-2.161-0.177-3.063-0.531c-0.903-0.354-1.668-0.873-2.296-1.559s-1.108-1.536-1.441-2.549
		s-0.499-2.179-0.499-3.499c0-1.235,0.174-2.362,0.522-3.38s0.85-1.895,1.504-2.628c0.654-0.734,1.451-1.304,2.391-1.71
		s2.005-0.61,3.198-0.61c1.14,0,2.161,0.177,3.063,0.531s1.667,0.871,2.296,1.551c0.628,0.681,1.108,1.528,1.44,2.541
		S760.18,29.038,760.18,30.347z M757.362,30.473c0-0.981-0.108-1.839-0.325-2.573c-0.216-0.733-0.525-1.346-0.926-1.836
		c-0.401-0.491-0.89-0.86-1.465-1.108c-0.575-0.248-1.216-0.372-1.923-0.372c-0.823,0-1.528,0.161-2.114,0.483
		c-0.585,0.322-1.066,0.752-1.44,1.291c-0.375,0.538-0.649,1.164-0.823,1.876c-0.174,0.712-0.261,1.459-0.261,2.24
		c0,0.981,0.108,1.842,0.324,2.581s0.525,1.354,0.926,1.845c0.401,0.491,0.887,0.86,1.457,1.108c0.57,0.248,1.214,0.372,1.932,0.372
		c0.823,0,1.528-0.161,2.113-0.483c0.586-0.322,1.066-0.752,1.441-1.29c0.375-0.539,0.649-1.164,0.823-1.876
		C757.275,32.017,757.362,31.265,757.362,30.473z"/>
	<path d="M777.753,30.188c0,1.415-0.198,2.649-0.594,3.705c-0.396,1.055-0.942,1.931-1.639,2.628s-1.52,1.219-2.47,1.567
		c-0.95,0.348-1.979,0.522-3.087,0.522c-0.506,0-1.011-0.026-1.512-0.079c-0.501-0.053-1.011-0.143-1.528-0.269v6.649h-2.755V22.525
		h2.454l0.174,2.66c0.792-1.087,1.636-1.85,2.533-2.288s1.868-0.657,2.913-0.657c0.908,0,1.705,0.19,2.391,0.57
		s1.261,0.916,1.726,1.607c0.464,0.691,0.813,1.525,1.045,2.501C777.637,27.895,777.753,28.985,777.753,30.188z M774.935,30.315
		c0-0.834-0.061-1.599-0.182-2.296c-0.121-0.696-0.314-1.292-0.578-1.789c-0.264-0.496-0.602-0.884-1.013-1.164
		c-0.412-0.279-0.902-0.419-1.473-0.419c-0.348,0-0.702,0.055-1.061,0.166s-0.731,0.296-1.116,0.554
		c-0.385,0.259-0.792,0.602-1.219,1.029c-0.427,0.427-0.884,0.958-1.369,1.591v7.71c0.506,0.211,1.04,0.377,1.599,0.499
		c0.559,0.122,1.108,0.182,1.646,0.182c1.488,0,2.654-0.504,3.499-1.512C774.513,33.859,774.935,32.341,774.935,30.315z"/>
	<path d="M794.583,34.083c0,0.56-0.095,1.061-0.285,1.504c-0.19,0.443-0.449,0.836-0.776,1.18c-0.328,0.343-0.708,0.636-1.14,0.878
		c-0.433,0.243-0.895,0.443-1.385,0.602c-0.491,0.159-0.995,0.274-1.512,0.349c-0.518,0.074-1.024,0.111-1.52,0.111
		c-1.077,0-2.066-0.048-2.969-0.143c-0.902-0.095-1.787-0.248-2.652-0.459v-2.533c0.929,0.264,1.853,0.464,2.771,0.602
		c0.918,0.137,1.832,0.206,2.739,0.206c1.319,0,2.295-0.179,2.929-0.538s0.95-0.871,0.95-1.536c0-0.285-0.05-0.541-0.15-0.768
		c-0.101-0.227-0.283-0.443-0.546-0.649c-0.264-0.206-0.673-0.42-1.227-0.641c-0.554-0.222-1.312-0.475-2.272-0.76
		c-0.718-0.211-1.38-0.451-1.987-0.72s-1.132-0.588-1.575-0.958c-0.443-0.369-0.792-0.802-1.045-1.298
		c-0.253-0.496-0.38-1.082-0.38-1.757c0-0.443,0.103-0.929,0.309-1.457c0.206-0.527,0.557-1.018,1.053-1.472
		c0.496-0.454,1.166-0.831,2.011-1.132c0.844-0.301,1.9-0.452,3.167-0.452c0.623,0,1.314,0.035,2.074,0.103
		c0.76,0.069,1.551,0.188,2.375,0.356v2.454c-0.866-0.211-1.686-0.366-2.462-0.467c-0.776-0.1-1.449-0.15-2.019-0.15
		c-0.686,0-1.264,0.053-1.733,0.158c-0.47,0.106-0.85,0.251-1.14,0.436c-0.291,0.185-0.499,0.401-0.625,0.649
		c-0.126,0.248-0.19,0.515-0.19,0.8c0,0.285,0.056,0.543,0.167,0.775c0.111,0.232,0.316,0.457,0.617,0.673
		c0.301,0.217,0.721,0.433,1.259,0.649s1.24,0.451,2.105,0.705c0.939,0.274,1.731,0.562,2.375,0.863
		c0.644,0.301,1.166,0.636,1.567,1.005c0.401,0.37,0.688,0.786,0.863,1.25C794.496,32.964,794.583,33.492,794.583,34.083z"/>
</g>
<g>
	<path d="M1367.874,36.021h-2.818v-9.5h-8.692v9.5h-2.817V15.328h2.817v8.755h8.692v-8.755h2.818V36.021z"/>
	<path d="M1386.286,20.125l-5.414,14.217c-0.56,1.446-1.138,2.691-1.733,3.736c-0.597,1.045-1.249,1.902-1.956,2.573
		s-1.482,1.164-2.327,1.48c-0.845,0.316-1.789,0.475-2.834,0.475c-0.274,0-0.522-0.005-0.744-0.016
		c-0.222-0.011-0.464-0.026-0.728-0.047v-2.501c0.231,0.032,0.485,0.061,0.76,0.087s0.564,0.04,0.87,0.04
		c0.507,0,0.979-0.074,1.417-0.222c0.438-0.148,0.853-0.388,1.243-0.72s0.766-0.763,1.124-1.291s0.707-1.166,1.045-1.916
		l-6.349-15.896h3.135l4.021,10.513l0.808,2.47l0.918-2.533l3.721-10.449H1386.286z"/>
	<path d="M1403.56,27.788c0,1.415-0.198,2.649-0.594,3.705c-0.396,1.055-0.942,1.931-1.639,2.628s-1.52,1.219-2.47,1.567
		s-1.979,0.522-3.087,0.522c-0.507,0-1.011-0.026-1.513-0.079c-0.501-0.053-1.011-0.143-1.527-0.269v6.649h-2.755V20.125h2.454
		l0.174,2.66c0.792-1.087,1.636-1.85,2.533-2.288s1.868-0.657,2.913-0.657c0.908,0,1.704,0.19,2.391,0.57s1.262,0.916,1.726,1.607
		c0.465,0.691,0.813,1.525,1.045,2.501S1403.56,26.584,1403.56,27.788z M1400.741,27.915c0-0.834-0.061-1.599-0.182-2.296
		c-0.122-0.696-0.314-1.292-0.578-1.789c-0.264-0.496-0.602-0.884-1.014-1.164c-0.411-0.279-0.902-0.419-1.472-0.419
		c-0.349,0-0.702,0.055-1.062,0.166c-0.358,0.111-0.73,0.296-1.115,0.554c-0.386,0.259-0.792,0.602-1.22,1.029
		c-0.428,0.427-0.884,0.958-1.369,1.591v7.71c0.507,0.211,1.039,0.377,1.599,0.499c0.56,0.122,1.108,0.182,1.646,0.182
		c1.488,0,2.654-0.504,3.499-1.512S1400.741,29.941,1400.741,27.915z"/>
	<path d="M1421.229,27.234c0,0.391-0.006,0.718-0.016,0.981c-0.011,0.264-0.026,0.512-0.048,0.744h-11.162
		c0,1.625,0.454,2.874,1.362,3.744c0.907,0.871,2.216,1.306,3.926,1.306c0.465,0,0.929-0.018,1.394-0.055
		c0.464-0.037,0.913-0.087,1.346-0.15c0.433-0.063,0.847-0.135,1.243-0.214c0.396-0.079,0.762-0.167,1.1-0.261v2.264
		c-0.749,0.211-1.597,0.382-2.541,0.514s-1.923,0.198-2.937,0.198c-1.361,0-2.533-0.185-3.515-0.554
		c-0.981-0.37-1.787-0.905-2.414-1.607c-0.629-0.702-1.093-1.562-1.394-2.581s-0.451-2.172-0.451-3.459
		c0-1.119,0.16-2.177,0.482-3.174s0.792-1.874,1.409-2.628c0.617-0.754,1.375-1.354,2.272-1.797
		c0.896-0.443,1.915-0.665,3.056-0.665c1.107,0,2.09,0.174,2.944,0.522c0.854,0.349,1.575,0.842,2.161,1.48s1.029,1.415,1.33,2.327
		C1421.078,25.083,1421.229,26.104,1421.229,27.234z M1418.362,26.838c0.032-0.707-0.037-1.354-0.205-1.939
		c-0.169-0.586-0.431-1.09-0.784-1.512c-0.354-0.422-0.794-0.752-1.322-0.989c-0.527-0.237-1.14-0.356-1.836-0.356
		c-0.602,0-1.15,0.117-1.646,0.349s-0.924,0.56-1.282,0.981c-0.359,0.422-0.649,0.929-0.871,1.52s-0.359,1.24-0.412,1.947H1418.362z
		"/>
	<path d="M1426.278,20.125h2.517l0.079,2.929c0.939-1.129,1.866-1.948,2.779-2.454c0.912-0.507,1.833-0.76,2.763-0.76
		c1.646,0,2.895,0.533,3.744,1.599c0.85,1.066,1.242,2.649,1.18,4.75h-2.787c0.032-1.394-0.171-2.404-0.609-3.032
		c-0.438-0.628-1.079-0.942-1.924-0.942c-0.369,0-0.741,0.066-1.116,0.198c-0.374,0.132-0.76,0.343-1.155,0.633
		c-0.396,0.291-0.815,0.663-1.259,1.116c-0.443,0.454-0.918,1.003-1.425,1.646v10.212h-2.786V20.125z"/>
	<path d="M1457.752,36.021h-3.783l-7.409-8.518v8.518h-2.755V13.65h2.755v13.742l7.14-7.267h3.642l-7.457,7.33L1457.752,36.021z"/>
	<path d="M1471.495,36.021l-0.063-2.137c-0.865,0.855-1.744,1.472-2.636,1.852c-0.893,0.38-1.829,0.57-2.811,0.57
		c-0.908,0-1.684-0.116-2.327-0.349c-0.645-0.232-1.175-0.551-1.592-0.958s-0.723-0.884-0.918-1.433
		c-0.195-0.548-0.293-1.145-0.293-1.789c0-1.593,0.594-2.842,1.781-3.744s2.942-1.354,5.265-1.354h3.293v-1.394
		c0-0.939-0.301-1.691-0.902-2.256c-0.602-0.564-1.521-0.847-2.755-0.847c-0.897,0-1.781,0.101-2.652,0.301
		c-0.87,0.201-1.771,0.486-2.699,0.855v-2.485c0.349-0.127,0.736-0.251,1.164-0.372c0.427-0.122,0.878-0.23,1.354-0.325
		c0.475-0.095,0.971-0.171,1.488-0.229c0.517-0.058,1.039-0.087,1.567-0.087c0.96,0,1.825,0.106,2.596,0.317
		c0.771,0.211,1.423,0.533,1.956,0.966c0.532,0.433,0.941,0.976,1.227,1.63c0.285,0.655,0.428,1.425,0.428,2.312v10.956H1471.495z
		 M1471.194,28.785h-3.499c-0.687,0-1.277,0.069-1.773,0.206s-0.902,0.333-1.219,0.585c-0.316,0.253-0.552,0.557-0.705,0.911
		c-0.152,0.354-0.229,0.752-0.229,1.195c0,0.306,0.048,0.599,0.143,0.878c0.095,0.28,0.248,0.528,0.459,0.744
		c0.211,0.217,0.485,0.388,0.823,0.515s0.75,0.19,1.235,0.19c0.633,0,1.358-0.192,2.177-0.578s1.681-0.995,2.589-1.829V28.785z"/>
	<path d="M1491.919,35.799c-0.623,0.158-1.267,0.271-1.932,0.34s-1.341,0.103-2.026,0.103c-1.995,0-3.483-0.451-4.465-1.354
		c-0.981-0.903-1.473-2.288-1.473-4.156v-8.296h-4.449v-2.312h4.449v-4.37l2.755-0.712v5.082h7.141v2.312h-7.141v8.074
		c0,1.14,0.303,1.993,0.91,2.557c0.606,0.565,1.501,0.847,2.684,0.847c0.507,0,1.061-0.04,1.662-0.119
		c0.602-0.079,1.229-0.203,1.885-0.372V35.799z"/>
	<path d="M1510.774,27.946c0,1.235-0.174,2.367-0.522,3.396c-0.348,1.029-0.85,1.91-1.504,2.644
		c-0.654,0.734-1.451,1.304-2.391,1.71s-2.005,0.61-3.198,0.61c-1.14,0-2.161-0.177-3.063-0.531s-1.668-0.873-2.295-1.559
		c-0.629-0.686-1.108-1.536-1.441-2.549c-0.332-1.013-0.498-2.179-0.498-3.499c0-1.235,0.174-2.362,0.522-3.38
		c0.348-1.019,0.849-1.895,1.504-2.628c0.654-0.734,1.451-1.304,2.391-1.71s2.005-0.61,3.198-0.61c1.14,0,2.161,0.177,3.063,0.531
		s1.667,0.871,2.295,1.551s1.108,1.528,1.441,2.541C1510.608,25.476,1510.774,26.638,1510.774,27.946z M1507.957,28.073
		c0-0.981-0.108-1.839-0.325-2.573c-0.216-0.733-0.525-1.346-0.926-1.836c-0.401-0.491-0.89-0.86-1.465-1.108
		c-0.575-0.248-1.217-0.372-1.924-0.372c-0.823,0-1.527,0.161-2.113,0.483c-0.586,0.322-1.066,0.752-1.44,1.291
		c-0.375,0.538-0.649,1.164-0.823,1.876c-0.175,0.712-0.262,1.459-0.262,2.24c0,0.981,0.108,1.842,0.325,2.581
		c0.216,0.739,0.524,1.354,0.926,1.845c0.401,0.491,0.887,0.86,1.457,1.108c0.569,0.248,1.213,0.372,1.931,0.372
		c0.823,0,1.528-0.161,2.114-0.483c0.586-0.322,1.065-0.752,1.44-1.29c0.375-0.539,0.649-1.164,0.823-1.876
		C1507.869,29.616,1507.957,28.864,1507.957,28.073z"/>
	<path d="M1520.179,22.405h-4.702v-2.28h7.489v13.6h4.733v2.296h-12.745v-2.296h5.225V22.405z M1521.145,13.459
		c0.307,0,0.592,0.056,0.855,0.167s0.493,0.267,0.688,0.467c0.195,0.201,0.349,0.43,0.459,0.689
		c0.111,0.259,0.166,0.541,0.166,0.847c0,0.295-0.055,0.575-0.166,0.839c-0.11,0.264-0.264,0.496-0.459,0.697
		s-0.425,0.356-0.688,0.467s-0.549,0.167-0.855,0.167c-0.306,0-0.591-0.056-0.854-0.167s-0.493-0.266-0.688-0.467
		s-0.349-0.433-0.459-0.697c-0.111-0.264-0.167-0.543-0.167-0.839c0-0.306,0.056-0.588,0.167-0.847
		c0.11-0.259,0.264-0.488,0.459-0.689c0.195-0.2,0.425-0.356,0.688-0.467S1520.839,13.459,1521.145,13.459z"/>
	<path d="M1546.887,36.021h-3.783l-7.409-8.518v8.518h-2.755V13.65h2.755v13.742l7.14-7.267h3.642l-7.457,7.33L1546.887,36.021z"/>
	<path d="M1555.832,22.405h-4.702v-2.28h7.489v13.6h4.733v2.296h-12.745v-2.296h5.225V22.405z M1556.798,13.459
		c0.307,0,0.592,0.056,0.855,0.167s0.493,0.267,0.688,0.467c0.195,0.201,0.349,0.43,0.459,0.689
		c0.111,0.259,0.166,0.541,0.166,0.847c0,0.295-0.055,0.575-0.166,0.839c-0.11,0.264-0.264,0.496-0.459,0.697
		s-0.425,0.356-0.688,0.467s-0.549,0.167-0.855,0.167c-0.306,0-0.591-0.056-0.854-0.167s-0.493-0.266-0.688-0.467
		s-0.349-0.433-0.459-0.697c-0.111-0.264-0.167-0.543-0.167-0.839c0-0.306,0.056-0.588,0.167-0.847
		c0.11-0.259,0.264-0.488,0.459-0.689c0.195-0.2,0.425-0.356,0.688-0.467S1556.492,13.459,1556.798,13.459z"/>
	<path d="M1578.457,36.021l-0.063-2.137c-0.865,0.855-1.744,1.472-2.636,1.852c-0.893,0.38-1.829,0.57-2.811,0.57
		c-0.908,0-1.684-0.116-2.327-0.349c-0.645-0.232-1.175-0.551-1.592-0.958s-0.723-0.884-0.918-1.433
		c-0.195-0.548-0.293-1.145-0.293-1.789c0-1.593,0.594-2.842,1.781-3.744s2.942-1.354,5.265-1.354h3.293v-1.394
		c0-0.939-0.301-1.691-0.902-2.256c-0.602-0.564-1.521-0.847-2.755-0.847c-0.897,0-1.781,0.101-2.652,0.301
		c-0.87,0.201-1.771,0.486-2.699,0.855v-2.485c0.349-0.127,0.736-0.251,1.164-0.372c0.427-0.122,0.878-0.23,1.354-0.325
		c0.475-0.095,0.971-0.171,1.488-0.229c0.517-0.058,1.039-0.087,1.567-0.087c0.96,0,1.825,0.106,2.596,0.317
		c0.771,0.211,1.423,0.533,1.956,0.966c0.532,0.433,0.941,0.976,1.227,1.63c0.285,0.655,0.428,1.425,0.428,2.312v10.956H1578.457z
		 M1578.156,28.785h-3.499c-0.687,0-1.277,0.069-1.773,0.206s-0.902,0.333-1.219,0.585c-0.316,0.253-0.552,0.557-0.705,0.911
		c-0.152,0.354-0.229,0.752-0.229,1.195c0,0.306,0.048,0.599,0.143,0.878c0.095,0.28,0.248,0.528,0.459,0.744
		c0.211,0.217,0.485,0.388,0.823,0.515s0.75,0.19,1.235,0.19c0.633,0,1.358-0.192,2.177-0.578s1.681-0.995,2.589-1.829V28.785z"/>
</g>
<g>
	<path d="M71.836,272.72h-6.127v18.286h-2.85V272.72h-6.127v-2.406h15.104V272.72z"/>
	<path d="M89.157,282.219c0,0.391-0.006,0.718-0.016,0.981c-0.011,0.264-0.026,0.512-0.047,0.744H77.932
		c0,1.625,0.454,2.874,1.361,3.744s2.217,1.306,3.927,1.306c0.464,0,0.928-0.018,1.393-0.055c0.464-0.037,0.913-0.087,1.346-0.15
		c0.433-0.063,0.847-0.135,1.243-0.214c0.396-0.079,0.763-0.167,1.101-0.261v2.264c-0.75,0.211-1.597,0.382-2.541,0.514
		c-0.945,0.132-1.924,0.198-2.937,0.198c-1.362,0-2.533-0.185-3.515-0.554c-0.982-0.37-1.787-0.905-2.415-1.607
		s-1.092-1.562-1.393-2.581s-0.451-2.172-0.451-3.459c0-1.119,0.161-2.177,0.483-3.174c0.322-0.998,0.792-1.874,1.409-2.628
		c0.618-0.754,1.375-1.354,2.272-1.797s1.916-0.665,3.056-0.665c1.108,0,2.09,0.174,2.945,0.522c0.855,0.349,1.575,0.842,2.161,1.48
		s1.029,1.415,1.33,2.327C89.006,280.068,89.157,281.09,89.157,282.219z M86.291,281.823c0.032-0.707-0.037-1.354-0.206-1.939
		s-0.43-1.09-0.784-1.512c-0.354-0.422-0.794-0.752-1.322-0.989s-1.14-0.356-1.836-0.356c-0.602,0-1.151,0.117-1.646,0.349
		c-0.497,0.232-0.924,0.56-1.283,0.981c-0.359,0.422-0.649,0.929-0.871,1.52s-0.359,1.24-0.412,1.947H86.291z"/>
	<path d="M105.907,290.42c-0.718,0.275-1.454,0.478-2.208,0.61c-0.755,0.132-1.533,0.198-2.335,0.198
		c-2.512,0-4.446-0.681-5.802-2.042c-1.356-1.361-2.035-3.351-2.035-5.969c0-1.256,0.195-2.396,0.586-3.419
		c0.39-1.024,0.939-1.9,1.646-2.628c0.707-0.728,1.551-1.29,2.533-1.686c0.981-0.396,2.063-0.594,3.246-0.594
		c0.823,0,1.593,0.058,2.312,0.174c0.717,0.116,1.403,0.306,2.058,0.57v2.628c-0.687-0.358-1.385-0.62-2.098-0.784
		c-0.713-0.163-1.449-0.245-2.209-0.245c-0.707,0-1.375,0.135-2.002,0.404c-0.628,0.269-1.18,0.657-1.655,1.164
		c-0.475,0.506-0.85,1.124-1.124,1.853c-0.274,0.728-0.412,1.551-0.412,2.47c0,1.921,0.467,3.359,1.401,4.314
		c0.934,0.956,2.229,1.433,3.887,1.433c0.75,0,1.475-0.084,2.177-0.253s1.38-0.422,2.035-0.76V290.42z"/>
	<path d="M124.161,291.006h-2.755v-10.148c0-1.224-0.229-2.14-0.688-2.747c-0.459-0.606-1.116-0.91-1.971-0.91
		c-0.37,0-0.715,0.05-1.037,0.15c-0.322,0.101-0.657,0.274-1.005,0.522c-0.348,0.248-0.728,0.583-1.14,1.005
		c-0.412,0.422-0.887,0.95-1.425,1.583v10.544h-2.755v-22.371h2.755v6.475l-0.095,2.501c0.433-0.517,0.857-0.952,1.274-1.306
		c0.417-0.354,0.834-0.641,1.251-0.863c0.417-0.222,0.841-0.38,1.274-0.475c0.433-0.095,0.881-0.143,1.346-0.143
		c1.583,0,2.808,0.483,3.673,1.449c0.866,0.966,1.298,2.42,1.298,4.362V291.006z"/>
	<path d="M129.212,275.11h2.454l0.111,2.565c0.464-0.549,0.913-1.005,1.346-1.37c0.433-0.364,0.857-0.657,1.274-0.878
		c0.417-0.222,0.841-0.377,1.274-0.467c0.433-0.089,0.881-0.135,1.346-0.135c1.636,0,2.874,0.483,3.713,1.449
		c0.839,0.966,1.258,2.42,1.258,4.362v10.37h-2.755v-10.148c0-1.245-0.232-2.166-0.696-2.763c-0.465-0.596-1.156-0.895-2.074-0.895
		c-0.338,0-0.667,0.05-0.989,0.15c-0.322,0.101-0.657,0.274-1.005,0.522c-0.349,0.248-0.726,0.583-1.132,1.005
		c-0.406,0.422-0.863,0.95-1.369,1.583v10.544h-2.755V275.11z"/>
	<path d="M160.876,282.932c0,1.235-0.174,2.367-0.522,3.396c-0.349,1.029-0.85,1.91-1.504,2.644
		c-0.654,0.734-1.451,1.304-2.391,1.71s-2.005,0.61-3.198,0.61c-1.14,0-2.161-0.177-3.063-0.531
		c-0.903-0.354-1.668-0.873-2.296-1.559s-1.108-1.536-1.441-2.549s-0.499-2.179-0.499-3.499c0-1.235,0.174-2.362,0.522-3.38
		s0.85-1.895,1.504-2.628c0.654-0.734,1.451-1.304,2.391-1.71s2.005-0.61,3.198-0.61c1.14,0,2.161,0.177,3.063,0.531
		s1.667,0.871,2.296,1.551c0.628,0.681,1.108,1.528,1.44,2.541S160.876,281.623,160.876,282.932z M158.058,283.058
		c0-0.981-0.108-1.839-0.325-2.573c-0.216-0.733-0.525-1.346-0.926-1.836c-0.401-0.491-0.89-0.86-1.465-1.108
		c-0.575-0.248-1.216-0.372-1.923-0.372c-0.823,0-1.528,0.161-2.114,0.483c-0.585,0.322-1.066,0.752-1.44,1.291
		c-0.375,0.538-0.649,1.164-0.823,1.876c-0.174,0.712-0.261,1.459-0.261,2.24c0,0.981,0.108,1.842,0.324,2.581
		s0.525,1.354,0.926,1.845c0.401,0.491,0.887,0.86,1.457,1.108c0.57,0.248,1.214,0.372,1.932,0.372c0.823,0,1.528-0.161,2.113-0.483
		c0.586-0.322,1.066-0.752,1.441-1.29c0.375-0.539,0.649-1.164,0.823-1.876C157.971,284.602,158.058,283.85,158.058,283.058z"/>
	<path d="M170.28,270.899h-4.702v-2.264h7.489v20.075h4.733v2.296h-12.745v-2.296h5.225V270.899z"/>
	<path d="M196.53,282.932c0,1.235-0.174,2.367-0.522,3.396c-0.349,1.029-0.85,1.91-1.504,2.644c-0.654,0.734-1.451,1.304-2.391,1.71
		s-2.005,0.61-3.198,0.61c-1.14,0-2.161-0.177-3.063-0.531c-0.903-0.354-1.668-0.873-2.296-1.559s-1.108-1.536-1.441-2.549
		s-0.499-2.179-0.499-3.499c0-1.235,0.174-2.362,0.522-3.38s0.85-1.895,1.504-2.628c0.654-0.734,1.451-1.304,2.391-1.71
		s2.005-0.61,3.198-0.61c1.14,0,2.161,0.177,3.063,0.531s1.667,0.871,2.296,1.551c0.628,0.681,1.108,1.528,1.44,2.541
		S196.53,281.623,196.53,282.932z M193.712,283.058c0-0.981-0.108-1.839-0.325-2.573c-0.216-0.733-0.525-1.346-0.926-1.836
		c-0.401-0.491-0.89-0.86-1.465-1.108c-0.575-0.248-1.216-0.372-1.923-0.372c-0.823,0-1.528,0.161-2.114,0.483
		c-0.585,0.322-1.066,0.752-1.44,1.291c-0.375,0.538-0.649,1.164-0.823,1.876c-0.174,0.712-0.261,1.459-0.261,2.24
		c0,0.981,0.108,1.842,0.324,2.581s0.525,1.354,0.926,1.845c0.401,0.491,0.887,0.86,1.457,1.108c0.57,0.248,1.214,0.372,1.932,0.372
		c0.823,0,1.528-0.161,2.113-0.483c0.586-0.322,1.066-0.752,1.441-1.29c0.375-0.539,0.649-1.164,0.823-1.876
		C193.625,284.602,193.712,283.85,193.712,283.058z"/>
	<path d="M211.966,277.358c0.295,0.37,0.525,0.8,0.688,1.291s0.246,1.021,0.246,1.591c0,0.823-0.15,1.575-0.451,2.256
		c-0.301,0.681-0.726,1.264-1.275,1.75s-1.206,0.863-1.971,1.132c-0.766,0.269-1.607,0.404-2.525,0.404
		c-0.665,0-1.288-0.071-1.868-0.214c-0.581-0.143-1.04-0.319-1.377-0.53c-0.201,0.295-0.37,0.575-0.507,0.839
		c-0.137,0.264-0.206,0.56-0.206,0.886c0,0.401,0.192,0.734,0.578,0.998c0.385,0.264,0.895,0.406,1.528,0.427l4.18,0.159
		c0.792,0.021,1.522,0.121,2.193,0.301c0.67,0.18,1.245,0.438,1.726,0.776s0.855,0.754,1.124,1.25
		c0.27,0.496,0.404,1.071,0.404,1.726c0,0.707-0.153,1.377-0.459,2.011s-0.778,1.19-1.417,1.67c-0.639,0.48-1.449,0.863-2.43,1.148
		c-0.981,0.285-2.148,0.427-3.499,0.427c-1.288,0-2.383-0.103-3.285-0.309c-0.902-0.206-1.644-0.491-2.225-0.855
		s-1.002-0.797-1.267-1.298c-0.264-0.501-0.396-1.053-0.396-1.654c0-0.771,0.179-1.446,0.538-2.026
		c0.359-0.581,0.913-1.14,1.663-1.678c-0.275-0.127-0.512-0.285-0.712-0.475c-0.201-0.19-0.364-0.398-0.491-0.625
		c-0.127-0.227-0.222-0.467-0.285-0.72s-0.095-0.501-0.095-0.744c0-0.686,0.161-1.314,0.483-1.884
		c0.322-0.57,0.705-1.108,1.148-1.615c-0.201-0.243-0.377-0.48-0.53-0.712c-0.153-0.232-0.285-0.483-0.396-0.752
		s-0.195-0.56-0.253-0.871c-0.059-0.312-0.087-0.667-0.087-1.069c0-0.823,0.15-1.575,0.451-2.256
		c0.301-0.681,0.723-1.264,1.267-1.749s1.198-0.863,1.963-1.132c0.765-0.269,1.612-0.404,2.541-0.404c0.39,0,0.765,0.027,1.124,0.08
		s0.675,0.121,0.95,0.206h5.763v2.248H211.966z M202.403,293.302c0,0.749,0.391,1.295,1.172,1.638
		c0.781,0.343,1.868,0.515,3.261,0.515c0.876,0,1.612-0.079,2.208-0.237s1.077-0.367,1.441-0.625s0.625-0.554,0.784-0.887
		s0.237-0.673,0.237-1.021c0-0.644-0.264-1.119-0.792-1.425c-0.528-0.306-1.335-0.485-2.422-0.539l-4.148-0.142
		c-0.348,0.232-0.636,0.459-0.863,0.681c-0.227,0.222-0.404,0.446-0.53,0.673c-0.127,0.227-0.217,0.454-0.27,0.681
		S202.403,293.069,202.403,293.302z M203.243,280.303c0,0.507,0.084,0.971,0.253,1.394c0.168,0.422,0.406,0.781,0.712,1.076
		c0.306,0.296,0.667,0.525,1.084,0.689c0.417,0.164,0.878,0.245,1.385,0.245c0.549,0,1.037-0.092,1.464-0.277
		c0.428-0.185,0.786-0.436,1.077-0.752c0.29-0.317,0.512-0.681,0.665-1.092c0.153-0.412,0.229-0.839,0.229-1.283
		c0-0.506-0.084-0.971-0.253-1.393c-0.169-0.422-0.406-0.781-0.712-1.077s-0.667-0.525-1.084-0.688s-0.879-0.246-1.385-0.246
		c-0.549,0-1.037,0.095-1.464,0.285c-0.428,0.19-0.787,0.44-1.077,0.752c-0.291,0.312-0.512,0.673-0.665,1.084
		C203.319,279.433,203.243,279.86,203.243,280.303z"/>
	<path d="M232.485,275.11l-5.415,14.217c-0.56,1.446-1.138,2.691-1.734,3.736s-1.248,1.902-1.955,2.573
		c-0.708,0.67-1.483,1.164-2.328,1.48c-0.844,0.316-1.789,0.475-2.834,0.475c-0.274,0-0.522-0.005-0.744-0.016
		c-0.222-0.011-0.465-0.026-0.729-0.047v-2.501c0.232,0.032,0.485,0.061,0.76,0.087s0.565,0.04,0.871,0.04
		c0.506,0,0.979-0.074,1.417-0.222c0.438-0.148,0.852-0.388,1.243-0.72c0.39-0.333,0.765-0.763,1.124-1.291s0.707-1.166,1.045-1.916
		l-6.349-15.896h3.135l4.021,10.513l0.807,2.47l0.918-2.533l3.721-10.449H232.485z"/>
</g>
<g>
	<path d="M70.316,404.813H58.553v-20.692h11.763v2.375h-8.945v6.411h8.597v2.375h-8.597v7.125h8.945V404.813z"/>
	<path d="M75.731,388.918h2.454l0.111,2.564c0.464-0.548,0.913-1.005,1.346-1.369c0.433-0.364,0.857-0.657,1.274-0.879
		c0.417-0.222,0.841-0.377,1.274-0.467c0.433-0.09,0.881-0.135,1.346-0.135c1.636,0,2.874,0.483,3.713,1.449
		c0.839,0.966,1.258,2.42,1.258,4.361v10.37h-2.755v-10.148c0-1.245-0.232-2.166-0.696-2.763c-0.465-0.596-1.156-0.895-2.074-0.895
		c-0.338,0-0.667,0.05-0.989,0.15c-0.322,0.101-0.657,0.274-1.005,0.522c-0.349,0.248-0.726,0.583-1.132,1.006
		c-0.406,0.422-0.863,0.949-1.369,1.583v10.544h-2.755V388.918z"/>
	<path d="M92.069,388.918h3.135l3.895,10.513l0.839,2.564l0.871-2.628l3.863-10.449h3.024l-6.238,15.896h-3.167L92.069,388.918z"/>
	<path d="M116.799,391.198h-4.702v-2.28h7.489v13.6h4.733v2.296h-12.745v-2.296h5.225V391.198z M117.765,382.253
		c0.306,0,0.591,0.055,0.855,0.166c0.264,0.11,0.493,0.267,0.688,0.467c0.195,0.201,0.349,0.431,0.459,0.688
		c0.11,0.259,0.166,0.541,0.166,0.848c0,0.295-0.056,0.575-0.166,0.839c-0.111,0.264-0.264,0.496-0.459,0.696
		c-0.195,0.201-0.425,0.356-0.688,0.468c-0.264,0.11-0.549,0.166-0.855,0.166s-0.591-0.056-0.855-0.166
		c-0.264-0.111-0.494-0.267-0.689-0.468c-0.195-0.2-0.348-0.433-0.459-0.696s-0.166-0.544-0.166-0.839
		c0-0.307,0.055-0.589,0.166-0.848c0.111-0.258,0.264-0.487,0.459-0.688c0.195-0.2,0.425-0.356,0.689-0.467
		C117.174,382.308,117.459,382.253,117.765,382.253z"/>
	<path d="M129.861,388.918h2.518l0.079,2.929c0.939-1.129,1.865-1.947,2.778-2.454c0.913-0.506,1.834-0.76,2.763-0.76
		c1.646,0,2.895,0.533,3.745,1.6c0.849,1.065,1.243,2.649,1.179,4.749h-2.786c0.031-1.393-0.172-2.403-0.61-3.031
		s-1.079-0.942-1.923-0.942c-0.37,0-0.742,0.066-1.116,0.198c-0.375,0.132-0.76,0.343-1.156,0.633
		c-0.396,0.291-0.815,0.663-1.259,1.116c-0.443,0.454-0.918,1.003-1.425,1.646v10.212h-2.787V388.918z"/>
	<path d="M160.876,396.739c0,1.234-0.174,2.367-0.522,3.396c-0.349,1.029-0.85,1.911-1.504,2.645s-1.451,1.304-2.391,1.71
		s-2.005,0.609-3.198,0.609c-1.14,0-2.161-0.177-3.063-0.53c-0.903-0.354-1.668-0.873-2.296-1.56s-1.108-1.536-1.441-2.549
		c-0.333-1.014-0.499-2.18-0.499-3.499c0-1.235,0.174-2.361,0.522-3.381c0.348-1.018,0.85-1.894,1.504-2.628
		c0.654-0.733,1.451-1.303,2.391-1.71c0.939-0.406,2.005-0.609,3.198-0.609c1.14,0,2.161,0.177,3.063,0.53
		c0.902,0.354,1.667,0.871,2.296,1.552c0.628,0.681,1.108,1.528,1.44,2.541C160.709,394.27,160.876,395.431,160.876,396.739z
		 M158.058,396.866c0-0.982-0.108-1.84-0.325-2.573s-0.525-1.346-0.926-1.837c-0.401-0.49-0.89-0.859-1.465-1.107
		s-1.216-0.372-1.923-0.372c-0.823,0-1.528,0.161-2.114,0.482c-0.585,0.322-1.066,0.752-1.44,1.29
		c-0.375,0.539-0.649,1.164-0.823,1.876c-0.174,0.713-0.261,1.46-0.261,2.241c0,0.981,0.108,1.842,0.324,2.58
		c0.216,0.739,0.525,1.354,0.926,1.845c0.401,0.49,0.887,0.86,1.457,1.108s1.214,0.372,1.932,0.372c0.823,0,1.528-0.161,2.113-0.483
		c0.586-0.321,1.066-0.752,1.441-1.29s0.649-1.164,0.823-1.876C157.971,398.409,158.058,397.657,158.058,396.866z"/>
	<path d="M164.866,388.918h2.454l0.111,2.564c0.464-0.548,0.913-1.005,1.346-1.369c0.433-0.364,0.857-0.657,1.274-0.879
		c0.417-0.222,0.841-0.377,1.274-0.467c0.433-0.09,0.881-0.135,1.346-0.135c1.636,0,2.874,0.483,3.713,1.449
		c0.839,0.966,1.258,2.42,1.258,4.361v10.37h-2.755v-10.148c0-1.245-0.232-2.166-0.696-2.763c-0.465-0.596-1.156-0.895-2.074-0.895
		c-0.338,0-0.667,0.05-0.989,0.15c-0.322,0.101-0.657,0.274-1.005,0.522c-0.349,0.248-0.726,0.583-1.132,1.006
		c-0.406,0.422-0.863,0.949-1.369,1.583v10.544h-2.755V388.918z"/>
	<path d="M194.029,404.813v-11.415c0-0.496-0.019-0.902-0.056-1.219c-0.037-0.317-0.095-0.567-0.174-0.752
		c-0.079-0.185-0.179-0.314-0.301-0.389c-0.121-0.073-0.271-0.11-0.451-0.11c-0.211,0-0.406,0.063-0.585,0.19
		c-0.18,0.126-0.372,0.332-0.578,0.617c-0.206,0.285-0.433,0.662-0.681,1.132s-0.541,1.048-0.879,1.733v10.212h-2.517v-11.114
		c0-0.58-0.019-1.05-0.056-1.409c-0.037-0.358-0.095-0.639-0.174-0.839s-0.182-0.338-0.309-0.412c-0.126-0.073-0.28-0.11-0.459-0.11
		c-0.19,0-0.37,0.053-0.538,0.158c-0.169,0.105-0.356,0.296-0.562,0.57c-0.206,0.274-0.436,0.648-0.689,1.124
		c-0.253,0.475-0.554,1.082-0.902,1.82v10.212h-2.533v-15.896h2.106l0.126,3.024c0.274-0.603,0.541-1.114,0.799-1.536
		s0.525-0.763,0.8-1.021c0.274-0.258,0.567-0.448,0.878-0.569c0.312-0.121,0.657-0.183,1.037-0.183c0.855,0,1.504,0.28,1.947,0.839
		c0.443,0.56,0.665,1.426,0.665,2.597c0.253-0.549,0.501-1.037,0.744-1.464c0.243-0.428,0.504-0.786,0.784-1.077
		c0.28-0.29,0.588-0.512,0.926-0.665c0.337-0.152,0.728-0.229,1.171-0.229c1.995,0,2.993,1.536,2.993,4.607v11.573H194.029z"/>
	<path d="M213.945,396.026c0,0.391-0.006,0.718-0.016,0.981c-0.011,0.265-0.026,0.513-0.047,0.744H202.72
		c0,1.626,0.454,2.874,1.361,3.745c0.908,0.87,2.217,1.306,3.927,1.306c0.464,0,0.928-0.019,1.393-0.056
		c0.464-0.036,0.913-0.087,1.346-0.15c0.433-0.063,0.847-0.135,1.243-0.214c0.396-0.079,0.763-0.166,1.101-0.261v2.264
		c-0.75,0.212-1.597,0.383-2.541,0.515c-0.945,0.132-1.924,0.198-2.937,0.198c-1.362,0-2.533-0.185-3.515-0.555
		c-0.982-0.369-1.787-0.904-2.415-1.606s-1.092-1.563-1.393-2.581s-0.451-2.171-0.451-3.459c0-1.119,0.161-2.177,0.483-3.175
		c0.322-0.997,0.792-1.873,1.409-2.628c0.618-0.754,1.375-1.354,2.272-1.797s1.916-0.665,3.056-0.665
		c1.108,0,2.09,0.175,2.945,0.522c0.855,0.349,1.575,0.842,2.161,1.48s1.029,1.414,1.33,2.327
		C213.795,393.876,213.945,394.897,213.945,396.026z M211.08,395.631c0.032-0.707-0.037-1.354-0.206-1.939s-0.43-1.09-0.784-1.512
		s-0.794-0.752-1.322-0.99c-0.528-0.237-1.14-0.355-1.836-0.355c-0.602,0-1.151,0.116-1.646,0.348
		c-0.497,0.232-0.924,0.56-1.283,0.982c-0.359,0.422-0.649,0.929-0.871,1.52s-0.359,1.24-0.412,1.947H211.08z"/>
	<path d="M218.347,388.918h2.454l0.111,2.564c0.464-0.548,0.913-1.005,1.346-1.369c0.433-0.364,0.857-0.657,1.274-0.879
		c0.417-0.222,0.841-0.377,1.274-0.467c0.433-0.09,0.881-0.135,1.346-0.135c1.636,0,2.874,0.483,3.713,1.449
		c0.839,0.966,1.258,2.42,1.258,4.361v10.37h-2.755v-10.148c0-1.245-0.232-2.166-0.696-2.763c-0.465-0.596-1.156-0.895-2.074-0.895
		c-0.338,0-0.667,0.05-0.989,0.15c-0.322,0.101-0.657,0.274-1.005,0.522c-0.349,0.248-0.726,0.583-1.132,1.006
		c-0.406,0.422-0.863,0.949-1.369,1.583v10.544h-2.755V388.918z"/>
	<path d="M248.982,404.592c-0.623,0.158-1.267,0.271-1.932,0.341c-0.665,0.068-1.34,0.103-2.026,0.103
		c-1.995,0-3.483-0.451-4.465-1.354c-0.981-0.902-1.472-2.288-1.472-4.156v-8.296h-4.449v-2.312h4.449v-4.37l2.755-0.712v5.082h7.14
		v2.312h-7.14v8.074c0,1.14,0.303,1.992,0.91,2.557c0.607,0.565,1.501,0.848,2.684,0.848c0.507,0,1.061-0.04,1.663-0.119
		c0.602-0.079,1.229-0.203,1.884-0.372V404.592z"/>
</g>
<g>
	<path d="M71.155,516.163c0,0.981-0.201,1.842-0.602,2.58c-0.401,0.739-0.96,1.354-1.678,1.845
		c-0.718,0.491-1.581,0.857-2.588,1.101c-1.008,0.242-2.119,0.364-3.333,0.364c-0.549,0-1.095-0.021-1.639-0.063
		s-1.066-0.095-1.567-0.158s-0.974-0.137-1.417-0.222s-0.844-0.174-1.203-0.27v-2.723c0.792,0.295,1.681,0.527,2.668,0.696
		c0.987,0.169,2.108,0.254,3.364,0.254c0.908,0,1.681-0.071,2.319-0.214c0.638-0.143,1.161-0.354,1.567-0.634
		c0.406-0.279,0.702-0.62,0.887-1.021c0.185-0.4,0.277-0.859,0.277-1.377c0-0.56-0.156-1.037-0.467-1.433
		c-0.312-0.396-0.721-0.749-1.227-1.061c-0.507-0.312-1.084-0.597-1.734-0.855c-0.649-0.259-1.312-0.524-1.987-0.8
		c-0.676-0.273-1.338-0.572-1.987-0.895c-0.649-0.321-1.227-0.701-1.734-1.14c-0.506-0.438-0.916-0.952-1.227-1.543
		c-0.311-0.592-0.467-1.293-0.467-2.106c0-0.707,0.147-1.403,0.443-2.09c0.295-0.686,0.754-1.295,1.377-1.828
		c0.623-0.533,1.422-0.963,2.398-1.29c0.976-0.327,2.14-0.491,3.491-0.491c0.349,0,0.726,0.016,1.132,0.048
		c0.406,0.031,0.818,0.076,1.235,0.134c0.417,0.059,0.829,0.125,1.235,0.198c0.406,0.074,0.784,0.153,1.132,0.237v2.533
		c-0.813-0.231-1.625-0.409-2.438-0.53c-0.813-0.121-1.599-0.182-2.359-0.182c-1.615,0-2.802,0.269-3.563,0.807
		c-0.76,0.539-1.14,1.262-1.14,2.169c0,0.56,0.155,1.04,0.467,1.441s0.721,0.76,1.227,1.076c0.507,0.316,1.084,0.604,1.734,0.863
		c0.649,0.259,1.311,0.525,1.987,0.799c0.675,0.275,1.338,0.576,1.987,0.903c0.649,0.327,1.227,0.715,1.734,1.163
		c0.506,0.449,0.916,0.974,1.227,1.575C71,514.627,71.155,515.34,71.155,516.163z"/>
	<path d="M89.568,513.693c0,1.234-0.174,2.367-0.522,3.396c-0.349,1.029-0.85,1.911-1.504,2.645s-1.451,1.304-2.391,1.71
		s-2.005,0.609-3.198,0.609c-1.14,0-2.161-0.177-3.063-0.53c-0.903-0.354-1.668-0.873-2.296-1.56s-1.108-1.536-1.441-2.549
		c-0.333-1.014-0.499-2.18-0.499-3.499c0-1.235,0.174-2.361,0.522-3.381c0.348-1.018,0.85-1.894,1.504-2.628
		c0.654-0.733,1.451-1.303,2.391-1.71c0.939-0.406,2.005-0.609,3.198-0.609c1.14,0,2.161,0.177,3.063,0.53
		c0.902,0.354,1.667,0.871,2.296,1.552c0.628,0.681,1.108,1.528,1.44,2.541C89.402,511.224,89.568,512.385,89.568,513.693z
		 M86.75,513.82c0-0.982-0.108-1.84-0.325-2.573s-0.525-1.346-0.926-1.837c-0.401-0.49-0.89-0.859-1.465-1.107
		s-1.216-0.372-1.923-0.372c-0.823,0-1.528,0.161-2.114,0.482c-0.585,0.322-1.066,0.752-1.44,1.29
		c-0.375,0.539-0.649,1.164-0.823,1.876c-0.174,0.713-0.261,1.46-0.261,2.241c0,0.981,0.108,1.842,0.324,2.58
		c0.216,0.739,0.525,1.354,0.926,1.845c0.401,0.49,0.887,0.86,1.457,1.108s1.214,0.372,1.932,0.372c0.823,0,1.528-0.161,2.113-0.483
		c0.586-0.321,1.066-0.752,1.441-1.29s0.649-1.164,0.823-1.876C86.663,515.363,86.75,514.611,86.75,513.82z"/>
	<path d="M105.907,521.182c-0.718,0.274-1.454,0.478-2.208,0.609c-0.755,0.132-1.533,0.198-2.335,0.198
		c-2.512,0-4.446-0.681-5.802-2.042c-1.356-1.362-2.035-3.352-2.035-5.969c0-1.256,0.195-2.396,0.586-3.42
		c0.39-1.023,0.939-1.9,1.646-2.628c0.707-0.729,1.551-1.291,2.533-1.687c0.981-0.396,2.063-0.594,3.246-0.594
		c0.823,0,1.593,0.059,2.312,0.174c0.717,0.116,1.403,0.307,2.058,0.57v2.628c-0.687-0.358-1.385-0.62-2.098-0.783
		c-0.713-0.164-1.449-0.246-2.209-0.246c-0.707,0-1.375,0.135-2.002,0.404c-0.628,0.269-1.18,0.657-1.655,1.163
		c-0.475,0.507-0.85,1.125-1.124,1.853c-0.274,0.729-0.412,1.552-0.412,2.47c0,1.922,0.467,3.359,1.401,4.314
		s2.229,1.433,3.887,1.433c0.75,0,1.475-0.084,2.177-0.253s1.38-0.422,2.035-0.76V521.182z"/>
	<path d="M116.799,508.152h-4.702v-2.28h7.489v13.6h4.733v2.296h-12.745v-2.296h5.225V508.152z M117.765,499.207
		c0.306,0,0.591,0.055,0.855,0.166c0.264,0.11,0.493,0.267,0.688,0.467c0.195,0.201,0.349,0.431,0.459,0.688
		c0.11,0.259,0.166,0.541,0.166,0.848c0,0.295-0.056,0.575-0.166,0.839c-0.111,0.264-0.264,0.496-0.459,0.696
		c-0.195,0.201-0.425,0.356-0.688,0.468c-0.264,0.11-0.549,0.166-0.855,0.166s-0.591-0.056-0.855-0.166
		c-0.264-0.111-0.494-0.267-0.689-0.468c-0.195-0.2-0.348-0.433-0.459-0.696s-0.166-0.544-0.166-0.839
		c0-0.307,0.055-0.589,0.166-0.848c0.111-0.258,0.264-0.487,0.459-0.688c0.195-0.2,0.425-0.356,0.689-0.467
		C117.174,499.262,117.459,499.207,117.765,499.207z"/>
	<path d="M142.638,512.98c0,0.391-0.006,0.718-0.016,0.981c-0.011,0.265-0.026,0.513-0.047,0.744h-11.162
		c0,1.626,0.454,2.874,1.361,3.745c0.908,0.87,2.217,1.306,3.927,1.306c0.464,0,0.928-0.019,1.393-0.056
		c0.464-0.036,0.913-0.087,1.346-0.15c0.433-0.063,0.847-0.135,1.243-0.214c0.396-0.079,0.763-0.166,1.101-0.261v2.264
		c-0.75,0.212-1.597,0.383-2.541,0.515c-0.945,0.132-1.924,0.198-2.937,0.198c-1.362,0-2.533-0.185-3.515-0.555
		c-0.982-0.369-1.787-0.904-2.415-1.606s-1.092-1.563-1.393-2.581s-0.451-2.171-0.451-3.459c0-1.119,0.161-2.177,0.483-3.175
		c0.322-0.997,0.792-1.873,1.409-2.628c0.618-0.754,1.375-1.354,2.272-1.797s1.916-0.665,3.056-0.665
		c1.108,0,2.09,0.175,2.945,0.522c0.855,0.349,1.575,0.842,2.161,1.48s1.029,1.414,1.33,2.327
		C142.487,510.83,142.638,511.852,142.638,512.98z M139.772,512.585c0.032-0.707-0.037-1.354-0.206-1.939s-0.43-1.09-0.784-1.512
		s-0.794-0.752-1.322-0.99c-0.528-0.237-1.14-0.355-1.836-0.355c-0.602,0-1.151,0.116-1.646,0.348
		c-0.497,0.232-0.924,0.56-1.283,0.982c-0.359,0.422-0.649,0.929-0.871,1.52s-0.359,1.24-0.412,1.947H139.772z"/>
	<path d="M159.847,521.546c-0.623,0.158-1.267,0.271-1.932,0.341c-0.665,0.068-1.34,0.103-2.026,0.103
		c-1.995,0-3.483-0.451-4.465-1.354c-0.981-0.902-1.472-2.288-1.472-4.156v-8.296h-4.449v-2.312h4.449v-4.37l2.755-0.712v5.082h7.14
		v2.312h-7.14v8.074c0,1.14,0.303,1.992,0.91,2.557c0.607,0.565,1.501,0.848,2.684,0.848c0.507,0,1.061-0.04,1.663-0.119
		c0.602-0.079,1.229-0.203,1.884-0.372V521.546z"/>
	<path d="M179.004,505.872l-5.415,14.218c-0.56,1.445-1.138,2.691-1.734,3.736s-1.248,1.902-1.955,2.572
		c-0.708,0.67-1.483,1.164-2.328,1.48c-0.844,0.316-1.789,0.475-2.834,0.475c-0.274,0-0.522-0.005-0.744-0.016
		c-0.222-0.011-0.465-0.026-0.729-0.048v-2.501c0.232,0.031,0.485,0.061,0.76,0.087s0.565,0.04,0.871,0.04
		c0.506,0,0.979-0.074,1.417-0.222c0.438-0.148,0.852-0.389,1.243-0.721c0.39-0.332,0.765-0.763,1.124-1.29
		c0.359-0.528,0.707-1.167,1.045-1.916l-6.349-15.896h3.135l4.021,10.513l0.807,2.47l0.918-2.533l3.721-10.449H179.004z"/>
</g>
<g>
	<path d="M72.01,633.213h-3.182l-3.087-6.618c-0.232-0.506-0.47-0.926-0.712-1.259c-0.243-0.332-0.504-0.596-0.784-0.791
		c-0.28-0.195-0.586-0.335-0.918-0.42c-0.333-0.084-0.705-0.126-1.116-0.126h-1.33v9.214h-2.818v-20.692h5.542
		c1.203,0,2.237,0.132,3.103,0.396c0.865,0.264,1.575,0.634,2.129,1.108s0.96,1.048,1.219,1.718c0.259,0.67,0.388,1.412,0.388,2.225
		c0,0.644-0.095,1.253-0.285,1.828s-0.472,1.098-0.847,1.567c-0.375,0.47-0.839,0.876-1.394,1.22
		c-0.554,0.343-1.19,0.599-1.908,0.768c0.581,0.2,1.074,0.552,1.48,1.053c0.406,0.501,0.82,1.169,1.243,2.003L72.01,633.213z
		 M67.498,618.204c0-1.108-0.346-1.937-1.037-2.485s-1.665-0.823-2.921-0.823h-2.66v6.839h2.28c0.665,0,1.264-0.076,1.797-0.229
		c0.533-0.152,0.987-0.38,1.361-0.681s0.665-0.67,0.871-1.108C67.395,619.278,67.498,618.774,67.498,618.204z"/>
	<path d="M89.157,624.426c0,0.391-0.006,0.718-0.016,0.981c-0.011,0.265-0.026,0.513-0.047,0.744H77.932
		c0,1.626,0.454,2.874,1.361,3.745c0.908,0.87,2.217,1.306,3.927,1.306c0.464,0,0.928-0.019,1.393-0.056
		c0.464-0.036,0.913-0.087,1.346-0.15c0.433-0.063,0.847-0.135,1.243-0.214c0.396-0.079,0.763-0.166,1.101-0.261v2.264
		c-0.75,0.212-1.597,0.383-2.541,0.515c-0.945,0.132-1.924,0.198-2.937,0.198c-1.362,0-2.533-0.185-3.515-0.555
		c-0.982-0.369-1.787-0.904-2.415-1.606s-1.092-1.563-1.393-2.581s-0.451-2.171-0.451-3.459c0-1.119,0.161-2.177,0.483-3.175
		c0.322-0.997,0.792-1.873,1.409-2.628c0.618-0.754,1.375-1.354,2.272-1.797s1.916-0.665,3.056-0.665
		c1.108,0,2.09,0.175,2.945,0.522c0.855,0.349,1.575,0.842,2.161,1.48s1.029,1.414,1.33,2.327
		C89.006,622.275,89.157,623.297,89.157,624.426z M86.291,624.03c0.032-0.707-0.037-1.354-0.206-1.939s-0.43-1.09-0.784-1.512
		s-0.794-0.752-1.322-0.99c-0.528-0.237-1.14-0.355-1.836-0.355c-0.602,0-1.151,0.116-1.646,0.348
		c-0.497,0.232-0.924,0.56-1.283,0.982c-0.359,0.422-0.649,0.929-0.871,1.52s-0.359,1.24-0.412,1.947H86.291z"/>
	<path d="M105.004,619.565c0.295,0.37,0.525,0.8,0.688,1.29c0.164,0.491,0.246,1.021,0.246,1.592c0,0.823-0.15,1.575-0.451,2.256
		c-0.301,0.681-0.726,1.264-1.275,1.749c-0.549,0.486-1.206,0.863-1.971,1.133c-0.766,0.269-1.607,0.403-2.525,0.403
		c-0.665,0-1.288-0.071-1.868-0.214c-0.581-0.143-1.04-0.319-1.377-0.53c-0.201,0.296-0.37,0.575-0.507,0.839
		c-0.137,0.265-0.206,0.56-0.206,0.887c0,0.401,0.192,0.733,0.578,0.998c0.385,0.264,0.895,0.406,1.528,0.427l4.18,0.158
		c0.792,0.021,1.522,0.122,2.193,0.301c0.67,0.18,1.245,0.438,1.726,0.776s0.855,0.755,1.124,1.251
		c0.27,0.495,0.404,1.07,0.404,1.726c0,0.707-0.153,1.377-0.459,2.011c-0.306,0.633-0.778,1.189-1.417,1.67s-1.449,0.863-2.43,1.147
		c-0.981,0.285-2.148,0.428-3.499,0.428c-1.288,0-2.383-0.103-3.285-0.309s-1.644-0.491-2.225-0.854
		c-0.581-0.364-1.002-0.798-1.267-1.299c-0.264-0.501-0.396-1.053-0.396-1.654c0-0.771,0.179-1.446,0.538-2.026
		s0.913-1.14,1.663-1.679c-0.275-0.126-0.512-0.285-0.712-0.475c-0.201-0.19-0.364-0.398-0.491-0.625
		c-0.127-0.228-0.222-0.468-0.285-0.721s-0.095-0.501-0.095-0.744c0-0.687,0.161-1.314,0.483-1.884
		c0.322-0.57,0.705-1.108,1.148-1.615c-0.201-0.242-0.377-0.48-0.53-0.712c-0.153-0.232-0.285-0.483-0.396-0.753
		c-0.111-0.269-0.195-0.559-0.253-0.87c-0.059-0.312-0.087-0.668-0.087-1.069c0-0.823,0.15-1.575,0.451-2.256
		s0.723-1.264,1.267-1.749s1.198-0.863,1.963-1.132c0.765-0.27,1.612-0.404,2.541-0.404c0.39,0,0.765,0.026,1.124,0.079
		s0.675,0.122,0.95,0.206h5.763v2.248H105.004z M95.441,635.509c0,0.749,0.391,1.295,1.172,1.639
		c0.781,0.343,1.868,0.515,3.261,0.515c0.876,0,1.612-0.079,2.208-0.238c0.596-0.158,1.077-0.366,1.441-0.625
		s0.625-0.554,0.784-0.887c0.158-0.332,0.237-0.673,0.237-1.021c0-0.644-0.264-1.118-0.792-1.425
		c-0.528-0.306-1.335-0.485-2.422-0.538l-4.148-0.143c-0.348,0.232-0.636,0.459-0.863,0.681c-0.227,0.222-0.404,0.446-0.53,0.673
		c-0.127,0.228-0.217,0.454-0.27,0.682C95.468,635.047,95.441,635.276,95.441,635.509z M96.281,622.511
		c0,0.506,0.084,0.971,0.253,1.393c0.168,0.423,0.406,0.781,0.712,1.077c0.306,0.295,0.667,0.524,1.084,0.688
		c0.417,0.164,0.878,0.245,1.385,0.245c0.549,0,1.037-0.092,1.464-0.277c0.428-0.184,0.786-0.435,1.077-0.752
		c0.29-0.316,0.512-0.681,0.665-1.092c0.153-0.412,0.229-0.839,0.229-1.282c0-0.507-0.084-0.972-0.253-1.394
		s-0.406-0.781-0.712-1.076c-0.306-0.296-0.667-0.525-1.084-0.689c-0.417-0.163-0.879-0.245-1.385-0.245
		c-0.549,0-1.037,0.095-1.464,0.285c-0.428,0.189-0.787,0.44-1.077,0.752c-0.291,0.312-0.512,0.673-0.665,1.084
		C96.357,621.64,96.281,622.067,96.281,622.511z"/>
	<path d="M124.161,633.213h-2.47l-0.095-2.564c-0.475,0.549-0.926,1.005-1.354,1.369c-0.427,0.364-0.853,0.657-1.274,0.879
		c-0.422,0.222-0.847,0.377-1.274,0.467c-0.428,0.09-0.879,0.135-1.354,0.135c-1.636,0-2.871-0.48-3.705-1.44
		c-0.833-0.961-1.25-2.412-1.25-4.354v-10.386h2.755v10.164c0,2.438,0.918,3.657,2.755,3.657c0.337,0,0.667-0.05,0.989-0.15
		c0.322-0.1,0.66-0.274,1.013-0.522s0.733-0.583,1.14-1.005c0.406-0.422,0.863-0.955,1.369-1.6v-10.544h2.755V633.213z"/>
	<path d="M134.626,613.106h-4.702v-2.265h7.489v20.075h4.733v2.296h-12.745v-2.296h5.225V613.106z"/>
	<path d="M157.25,633.213l-0.063-2.138c-0.866,0.855-1.744,1.473-2.636,1.853s-1.829,0.57-2.81,0.57
		c-0.908,0-1.684-0.116-2.327-0.349c-0.644-0.231-1.174-0.551-1.591-0.958c-0.417-0.406-0.723-0.884-0.918-1.433
		s-0.293-1.145-0.293-1.789c0-1.594,0.594-2.842,1.781-3.744s2.942-1.354,5.264-1.354h3.293v-1.394c0-0.939-0.301-1.691-0.902-2.256
		s-1.52-0.847-2.755-0.847c-0.897,0-1.781,0.1-2.652,0.301c-0.871,0.2-1.771,0.485-2.699,0.854v-2.485
		c0.348-0.127,0.736-0.251,1.164-0.372c0.428-0.121,0.879-0.229,1.354-0.325c0.475-0.095,0.971-0.171,1.488-0.229
		c0.517-0.058,1.04-0.087,1.567-0.087c0.96,0,1.826,0.105,2.597,0.316c0.771,0.212,1.422,0.533,1.955,0.966
		c0.533,0.434,0.942,0.977,1.227,1.631c0.285,0.655,0.428,1.425,0.428,2.312v10.956H157.25z M156.949,625.978h-3.499
		c-0.687,0-1.277,0.068-1.773,0.206c-0.496,0.137-0.902,0.332-1.219,0.586c-0.317,0.253-0.552,0.557-0.705,0.91
		c-0.153,0.354-0.23,0.752-0.23,1.195c0,0.306,0.048,0.599,0.143,0.879c0.095,0.279,0.248,0.527,0.459,0.744
		c0.211,0.216,0.485,0.388,0.823,0.515c0.337,0.126,0.749,0.189,1.235,0.189c0.633,0,1.359-0.192,2.177-0.578
		c0.818-0.385,1.681-0.994,2.588-1.828V625.978z"/>
	<path d="M177.674,632.991c-0.623,0.158-1.267,0.271-1.932,0.341c-0.665,0.068-1.34,0.103-2.026,0.103
		c-1.995,0-3.483-0.451-4.465-1.354c-0.981-0.902-1.472-2.288-1.472-4.156v-8.296h-4.449v-2.312h4.449v-4.37l2.755-0.712v5.082h7.14
		v2.312h-7.14v8.074c0,1.14,0.303,1.992,0.91,2.557c0.607,0.565,1.501,0.848,2.684,0.848c0.507,0,1.061-0.04,1.663-0.119
		c0.602-0.079,1.229-0.203,1.884-0.372V632.991z"/>
	<path d="M188.107,619.598h-4.702v-2.28h7.489v13.6h4.733v2.296h-12.745v-2.296h5.225V619.598z M189.073,610.652
		c0.306,0,0.591,0.055,0.855,0.166c0.264,0.11,0.493,0.267,0.688,0.467c0.195,0.201,0.349,0.431,0.459,0.688
		c0.11,0.259,0.166,0.541,0.166,0.848c0,0.295-0.056,0.575-0.166,0.839c-0.111,0.264-0.264,0.496-0.459,0.696
		c-0.195,0.201-0.425,0.356-0.688,0.468c-0.264,0.11-0.549,0.166-0.855,0.166s-0.591-0.056-0.855-0.166
		c-0.264-0.111-0.494-0.267-0.689-0.468c-0.195-0.2-0.348-0.433-0.459-0.696s-0.166-0.544-0.166-0.839
		c0-0.307,0.055-0.589,0.166-0.848c0.111-0.258,0.264-0.487,0.459-0.688c0.195-0.2,0.425-0.356,0.689-0.467
		C188.482,610.707,188.767,610.652,189.073,610.652z"/>
	<path d="M214.357,625.139c0,1.234-0.174,2.367-0.522,3.396c-0.349,1.029-0.85,1.911-1.504,2.645s-1.451,1.304-2.391,1.71
		s-2.005,0.609-3.198,0.609c-1.14,0-2.161-0.177-3.063-0.53c-0.903-0.354-1.668-0.873-2.296-1.56s-1.108-1.536-1.441-2.549
		c-0.333-1.014-0.499-2.18-0.499-3.499c0-1.235,0.174-2.361,0.522-3.381c0.348-1.018,0.85-1.894,1.504-2.628
		c0.654-0.733,1.451-1.303,2.391-1.71c0.939-0.406,2.005-0.609,3.198-0.609c1.14,0,2.161,0.177,3.063,0.53
		c0.902,0.354,1.667,0.871,2.296,1.552c0.628,0.681,1.108,1.528,1.44,2.541C214.19,622.669,214.357,623.83,214.357,625.139z
		 M211.539,625.266c0-0.982-0.108-1.84-0.325-2.573s-0.525-1.346-0.926-1.837c-0.401-0.49-0.89-0.859-1.465-1.107
		s-1.216-0.372-1.923-0.372c-0.823,0-1.528,0.161-2.114,0.482c-0.585,0.322-1.066,0.752-1.44,1.29
		c-0.375,0.539-0.649,1.164-0.823,1.876c-0.174,0.713-0.261,1.46-0.261,2.241c0,0.981,0.108,1.842,0.324,2.58
		c0.216,0.739,0.525,1.354,0.926,1.845c0.401,0.49,0.887,0.86,1.457,1.108s1.214,0.372,1.932,0.372c0.823,0,1.528-0.161,2.113-0.483
		c0.586-0.321,1.066-0.752,1.441-1.29s0.649-1.164,0.823-1.876C211.452,626.809,211.539,626.057,211.539,625.266z"/>
	<path d="M218.347,617.317h2.454l0.111,2.564c0.464-0.548,0.913-1.005,1.346-1.369c0.433-0.364,0.857-0.657,1.274-0.879
		c0.417-0.222,0.841-0.377,1.274-0.467c0.433-0.09,0.881-0.135,1.346-0.135c1.636,0,2.874,0.483,3.713,1.449
		c0.839,0.966,1.258,2.42,1.258,4.361v10.37h-2.755v-10.148c0-1.245-0.232-2.166-0.696-2.763c-0.465-0.596-1.156-0.895-2.074-0.895
		c-0.338,0-0.667,0.05-0.989,0.15c-0.322,0.101-0.657,0.274-1.005,0.522c-0.349,0.248-0.726,0.583-1.132,1.006
		c-0.406,0.422-0.863,0.949-1.369,1.583v10.544h-2.755V617.317z"/>
	<path d="M248.76,628.875c0,0.56-0.095,1.061-0.285,1.504c-0.19,0.443-0.449,0.837-0.776,1.18c-0.328,0.343-0.708,0.636-1.14,0.879
		c-0.433,0.242-0.895,0.443-1.385,0.602s-0.995,0.274-1.512,0.348c-0.518,0.074-1.024,0.111-1.52,0.111
		c-1.077,0-2.066-0.048-2.969-0.143s-1.787-0.248-2.652-0.459v-2.533c0.929,0.264,1.853,0.465,2.771,0.602
		c0.918,0.137,1.832,0.206,2.739,0.206c1.319,0,2.295-0.18,2.929-0.539c0.633-0.358,0.95-0.87,0.95-1.535
		c0-0.285-0.05-0.541-0.15-0.768c-0.101-0.228-0.283-0.443-0.546-0.649s-0.673-0.42-1.227-0.642s-1.312-0.475-2.272-0.76
		c-0.718-0.211-1.38-0.451-1.987-0.721c-0.607-0.269-1.132-0.588-1.575-0.957c-0.443-0.37-0.792-0.803-1.045-1.299
		s-0.38-1.082-0.38-1.757c0-0.443,0.103-0.929,0.309-1.457c0.206-0.527,0.557-1.019,1.053-1.473
		c0.496-0.453,1.166-0.831,2.011-1.132c0.844-0.301,1.9-0.451,3.167-0.451c0.623,0,1.314,0.034,2.074,0.104
		c0.76,0.068,1.551,0.188,2.375,0.355v2.454c-0.866-0.211-1.686-0.366-2.462-0.467s-1.449-0.15-2.019-0.15
		c-0.686,0-1.264,0.053-1.733,0.158c-0.47,0.105-0.85,0.251-1.14,0.436c-0.291,0.185-0.499,0.401-0.625,0.649
		c-0.126,0.248-0.19,0.515-0.19,0.799c0,0.285,0.056,0.544,0.167,0.776s0.316,0.456,0.617,0.673
		c0.301,0.216,0.721,0.433,1.259,0.648c0.538,0.217,1.24,0.451,2.105,0.705c0.939,0.274,1.731,0.562,2.375,0.862
		c0.644,0.301,1.166,0.637,1.567,1.006c0.401,0.369,0.688,0.786,0.863,1.251C248.673,627.756,248.76,628.284,248.76,628.875z"/>
</g>
<g>
	<defs>
		<rect id="SVGID_3_" x="-174.409" y="-954" width="1984.363" height="2568"/>
	</defs>
	<clipPath id="SVGID_4_">
		<use xlink:href="#SVGID_3_"  overflow="visible"/>
	</clipPath>
	<path clip-path="url(#SVGID_4_)" fill="#FFFFFF" d="M983.319,297.325c10.155,0,18.386-8.229,18.386-18.381
		c0-10.153-8.23-18.385-18.386-18.385c-10.15,0-18.38,8.232-18.38,18.385C964.939,289.096,973.169,297.325,983.319,297.325"/>
	<path clip-path="url(#SVGID_4_)" fill="none" stroke="#000000" stroke-width="5.6693" d="M983.319,297.325
		c10.155,0,18.386-8.229,18.386-18.381c0-10.153-8.23-18.385-18.386-18.385c-10.15,0-18.38,8.232-18.38,18.385
		C964.939,289.096,973.169,297.325,983.319,297.325z"/>
	<path clip-path="url(#SVGID_4_)" fill="#FFFFFF" d="M745.408,297.325c10.15,0,18.381-8.229,18.381-18.381
		c0-10.153-8.23-18.385-18.381-18.385c-10.153,0-18.382,8.232-18.382,18.385C727.026,289.096,735.255,297.325,745.408,297.325"/>
	<circle clip-path="url(#SVGID_4_)" fill="none" stroke="#000000" stroke-width="5.6693" cx="745.408" cy="278.942" r="18.383"/>
	<path clip-path="url(#SVGID_4_)" fill="#FFFFFF" d="M507.033,297.325c10.152,0,18.38-8.229,18.38-18.381
		c0-10.153-8.228-18.385-18.38-18.385c-10.153,0-18.381,8.232-18.381,18.385C488.652,289.096,496.88,297.325,507.033,297.325"/>
	<circle clip-path="url(#SVGID_4_)" fill="none" stroke="#000000" stroke-width="5.6693" cx="507.033" cy="278.942" r="18.383"/>
	<path clip-path="url(#SVGID_4_)" fill="#FFFFFF" d="M983.319,528.098c10.155,0,18.386-8.229,18.386-18.381
		s-8.23-18.384-18.386-18.384c-10.15,0-18.38,8.232-18.38,18.384S973.169,528.098,983.319,528.098"/>
	<path clip-path="url(#SVGID_4_)" fill="none" stroke="#000000" stroke-width="5.6693" d="M983.319,528.098
		c10.155,0,18.386-8.229,18.386-18.381s-8.23-18.384-18.386-18.384c-10.15,0-18.38,8.232-18.38,18.384
		S973.169,528.098,983.319,528.098z"/>
	<path clip-path="url(#SVGID_4_)" fill="#FFFFFF" d="M745.408,528.098c10.15,0,18.381-8.229,18.381-18.381
		s-8.23-18.384-18.381-18.384c-10.153,0-18.382,8.232-18.382,18.384S735.255,528.098,745.408,528.098"/>
	<circle clip-path="url(#SVGID_4_)" fill="none" stroke="#000000" stroke-width="5.6693" cx="745.408" cy="509.715" r="18.382"/>
	<path clip-path="url(#SVGID_4_)" fill="#FFFFFF" d="M507.033,528.098c10.152,0,18.38-8.229,18.38-18.381
		s-8.228-18.384-18.38-18.384c-10.153,0-18.381,8.232-18.381,18.384S496.88,528.098,507.033,528.098"/>
	<circle clip-path="url(#SVGID_4_)" fill="none" stroke="#000000" stroke-width="5.6693" cx="507.033" cy="509.715" r="18.382"/>
	<path clip-path="url(#SVGID_4_)" fill="#FFFFFF" d="M1467.675,528.098c10.153,0,18.384-8.229,18.384-18.381
		s-8.23-18.384-18.384-18.384c-10.15,0-18.379,8.232-18.379,18.384S1457.524,528.098,1467.675,528.098"/>
	<circle clip-path="url(#SVGID_4_)" fill="none" stroke="#000000" stroke-width="5.6693" cx="1467.675" cy="509.715" r="18.382"/>
	<path clip-path="url(#SVGID_4_)" fill="#FFFFFF" d="M1222.154,528.098c10.154,0,18.381-8.229,18.381-18.381
		s-8.227-18.384-18.381-18.384c-10.151,0-18.381,8.232-18.381,18.384S1212.003,528.098,1222.154,528.098"/>
	<path clip-path="url(#SVGID_4_)" fill="none" stroke="#000000" stroke-width="5.6693" d="M1222.154,528.098
		c10.154,0,18.381-8.229,18.381-18.381s-8.227-18.384-18.381-18.384c-10.151,0-18.381,8.232-18.381,18.384
		S1212.003,528.098,1222.154,528.098z"/>
	<path clip-path="url(#SVGID_4_)" fill="#FFFFFF" d="M983.319,643.483c10.155,0,18.386-8.229,18.386-18.381
		s-8.23-18.386-18.386-18.386c-10.15,0-18.38,8.234-18.38,18.386S973.169,643.483,983.319,643.483"/>
	<path clip-path="url(#SVGID_4_)" fill="none" stroke="#000000" stroke-width="5.6693" d="M983.319,643.483
		c10.155,0,18.386-8.229,18.386-18.381s-8.23-18.386-18.386-18.386c-10.15,0-18.38,8.234-18.38,18.386
		S973.169,643.483,983.319,643.483z"/>
	<path clip-path="url(#SVGID_4_)" fill="#FFFFFF" d="M1222.154,643.483c10.154,0,18.381-8.229,18.381-18.381
		s-8.227-18.386-18.381-18.386c-10.151,0-18.381,8.234-18.381,18.386S1212.003,643.483,1222.154,643.483"/>
	<path clip-path="url(#SVGID_4_)" fill="none" stroke="#000000" stroke-width="5.6693" d="M1222.154,643.483
		c10.154,0,18.381-8.229,18.381-18.381s-8.227-18.386-18.381-18.386c-10.151,0-18.381,8.234-18.381,18.386
		S1212.003,643.483,1222.154,643.483z"/>
	<path clip-path="url(#SVGID_4_)" fill="#FFFFFF" d="M983.782,181.939c10.152,0,18.381-8.229,18.381-18.381
		s-8.229-18.384-18.381-18.384c-10.15,0-18.381,8.232-18.381,18.384S973.632,181.939,983.782,181.939"/>
	<circle clip-path="url(#SVGID_4_)" fill="none" stroke="#000000" stroke-width="5.6693" cx="983.782" cy="163.556" r="18.383"/>
	<path clip-path="url(#SVGID_4_)" fill="#FFFFFF" d="M507.033,181.939c10.152,0,18.38-8.229,18.38-18.381
		s-8.228-18.384-18.38-18.384c-10.153,0-18.381,8.232-18.381,18.384S496.88,181.939,507.033,181.939"/>
	<circle clip-path="url(#SVGID_4_)" fill="none" stroke="#000000" stroke-width="5.6693" cx="507.033" cy="163.556" r="18.383"/>
	<path clip-path="url(#SVGID_4_)" fill="#E6E7E8" d="M745.408,181.939c10.15,0,18.381-8.229,18.381-18.381
		s-8.23-18.384-18.381-18.384c-10.153,0-18.382,8.232-18.382,18.384S735.255,181.939,745.408,181.939"/>
	<path clip-path="url(#SVGID_4_)" fill="#E6E7E8" d="M745.408,643.483c10.15,0,18.381-8.229,18.381-18.381
		s-8.23-18.386-18.381-18.386c-10.153,0-18.382,8.234-18.382,18.386S735.255,643.483,745.408,643.483"/>
	<path clip-path="url(#SVGID_4_)" fill="#E6E7E8" d="M507.033,643.483c10.152,0,18.38-8.229,18.38-18.381
		s-8.228-18.386-18.38-18.386c-10.153,0-18.381,8.234-18.381,18.386S496.88,643.483,507.033,643.483"/>
	<path clip-path="url(#SVGID_4_)" fill="#E6E7E8" d="M1468.136,643.483c10.155,0,18.381-8.229,18.381-18.381
		s-8.226-18.386-18.381-18.386c-10.152,0-18.382,8.234-18.382,18.386S1457.983,643.483,1468.136,643.483"/>
	<path clip-path="url(#SVGID_4_)" fill="#FFFFFF" d="M1468.136,181.939c10.155,0,18.381-8.229,18.381-18.381
		s-8.226-18.384-18.381-18.384c-10.152,0-18.382,8.232-18.382,18.384S1457.983,181.939,1468.136,181.939"/>
	<path clip-path="url(#SVGID_4_)" fill="none" stroke="#000000" stroke-width="5.6693" d="M1468.136,181.939
		c10.155,0,18.381-8.229,18.381-18.381s-8.226-18.384-18.381-18.384c-10.152,0-18.382,8.232-18.382,18.384
		S1457.983,181.939,1468.136,181.939z"/>
	<path clip-path="url(#SVGID_4_)" fill="#FFFFFF" d="M1222.613,181.939c10.156,0,18.384-8.229,18.384-18.381
		s-8.228-18.384-18.384-18.384c-10.15,0-18.381,8.232-18.381,18.384S1212.463,181.939,1222.613,181.939"/>
	<path clip-path="url(#SVGID_4_)" fill="none" stroke="#000000" stroke-width="5.6693" d="M1222.613,181.939
		c10.156,0,18.384-8.229,18.384-18.381s-8.228-18.384-18.384-18.384c-10.15,0-18.381,8.232-18.381,18.384
		S1212.463,181.939,1222.613,181.939z"/>
	<path clip-path="url(#SVGID_4_)" fill="#FFFFFF" d="M983.319,412.711c10.155,0,18.386-8.23,18.386-18.382
		c0-10.152-8.23-18.385-18.386-18.385c-10.15,0-18.38,8.232-18.38,18.385C964.939,404.48,973.169,412.711,983.319,412.711"/>
	<path clip-path="url(#SVGID_4_)" fill="none" stroke="#000000" stroke-width="5.6693" d="M983.319,412.711
		c10.155,0,18.386-8.23,18.386-18.382c0-10.152-8.23-18.385-18.386-18.385c-10.15,0-18.38,8.232-18.38,18.385
		C964.939,404.48,973.169,412.711,983.319,412.711z"/>
	<path clip-path="url(#SVGID_4_)" fill="#FFFFFF" d="M745.408,412.711c10.15,0,18.381-8.23,18.381-18.382
		c0-10.152-8.23-18.385-18.381-18.385c-10.153,0-18.382,8.232-18.382,18.385C727.026,404.48,735.255,412.711,745.408,412.711"/>
	<circle clip-path="url(#SVGID_4_)" fill="none" stroke="#000000" stroke-width="5.6693" cx="745.408" cy="394.328" r="18.383"/>
	<path clip-path="url(#SVGID_4_)" fill="#FFFFFF" d="M507.033,412.711c10.152,0,18.38-8.23,18.38-18.382
		c0-10.152-8.228-18.385-18.38-18.385c-10.153,0-18.381,8.232-18.381,18.385C488.652,404.48,496.88,412.711,507.033,412.711"/>
	<circle clip-path="url(#SVGID_4_)" fill="none" stroke="#000000" stroke-width="5.6693" cx="507.033" cy="394.328" r="18.383"/>
</g>
<g>
	<path d="M887.802,38.411h-11.906V17.719h2.866v18.286h9.04V38.411z"/>
	<path d="M897.981,24.795h-4.702v-2.28h7.489v13.6h4.733v2.296h-12.745v-2.296h5.225V24.795z M898.947,15.85
		c0.307,0,0.592,0.056,0.855,0.167s0.493,0.267,0.688,0.467c0.195,0.201,0.349,0.43,0.459,0.689
		c0.111,0.259,0.166,0.541,0.166,0.847c0,0.295-0.055,0.575-0.166,0.839c-0.11,0.264-0.264,0.496-0.459,0.697
		s-0.425,0.356-0.688,0.467s-0.549,0.167-0.855,0.167c-0.306,0-0.591-0.056-0.854-0.167s-0.493-0.266-0.688-0.467
		s-0.349-0.433-0.459-0.697c-0.111-0.264-0.167-0.543-0.167-0.839c0-0.306,0.056-0.588,0.167-0.847
		c0.11-0.259,0.264-0.488,0.459-0.689c0.195-0.2,0.425-0.356,0.688-0.467S898.642,15.85,898.947,15.85z"/>
	<path d="M921.841,24.764c0.296,0.37,0.525,0.8,0.689,1.291c0.163,0.491,0.245,1.021,0.245,1.591c0,0.823-0.15,1.575-0.451,2.256
		s-0.726,1.264-1.274,1.75s-1.206,0.863-1.972,1.132c-0.765,0.269-1.606,0.404-2.525,0.404c-0.664,0-1.287-0.071-1.868-0.214
		c-0.58-0.143-1.039-0.319-1.377-0.53c-0.2,0.295-0.369,0.575-0.507,0.839c-0.137,0.264-0.206,0.56-0.206,0.886
		c0,0.401,0.193,0.734,0.578,0.998c0.386,0.264,0.895,0.406,1.528,0.427l4.18,0.159c0.791,0.021,1.522,0.121,2.192,0.301
		s1.245,0.438,1.726,0.776s0.855,0.754,1.124,1.25c0.27,0.496,0.404,1.071,0.404,1.726c0,0.707-0.153,1.377-0.46,2.011
		c-0.306,0.633-0.778,1.19-1.417,1.67c-0.639,0.48-1.448,0.863-2.43,1.148c-0.981,0.285-2.148,0.427-3.499,0.427
		c-1.288,0-2.383-0.103-3.285-0.309c-0.902-0.206-1.645-0.491-2.225-0.855s-1.003-0.797-1.267-1.298s-0.396-1.053-0.396-1.654
		c0-0.771,0.18-1.446,0.538-2.026c0.358-0.581,0.913-1.14,1.662-1.678c-0.274-0.127-0.512-0.285-0.712-0.475
		c-0.201-0.19-0.364-0.398-0.491-0.625c-0.126-0.227-0.222-0.467-0.285-0.72c-0.063-0.253-0.095-0.501-0.095-0.744
		c0-0.686,0.161-1.314,0.483-1.884c0.321-0.57,0.704-1.108,1.147-1.615c-0.2-0.243-0.377-0.48-0.53-0.712
		c-0.153-0.232-0.285-0.483-0.396-0.752c-0.111-0.269-0.195-0.56-0.254-0.871c-0.058-0.312-0.087-0.667-0.087-1.069
		c0-0.823,0.15-1.575,0.451-2.256c0.301-0.681,0.723-1.264,1.267-1.749s1.198-0.863,1.963-1.132
		c0.766-0.269,1.612-0.404,2.541-0.404c0.391,0,0.766,0.027,1.125,0.08c0.358,0.053,0.675,0.121,0.949,0.206h5.763v2.248H921.841z
		 M912.278,40.707c0,0.749,0.391,1.295,1.172,1.638c0.781,0.343,1.868,0.515,3.262,0.515c0.876,0,1.611-0.079,2.208-0.237
		s1.077-0.367,1.44-0.625c0.364-0.259,0.626-0.554,0.784-0.887s0.237-0.673,0.237-1.021c0-0.644-0.264-1.119-0.791-1.425
		c-0.528-0.306-1.336-0.485-2.423-0.539l-4.147-0.142c-0.349,0.232-0.637,0.459-0.863,0.681c-0.228,0.222-0.403,0.446-0.53,0.673
		c-0.127,0.227-0.217,0.454-0.27,0.681S912.278,40.475,912.278,40.707z M913.117,27.708c0,0.507,0.085,0.971,0.254,1.394
		c0.169,0.422,0.406,0.781,0.712,1.076c0.307,0.296,0.668,0.525,1.085,0.689s0.879,0.245,1.385,0.245
		c0.549,0,1.037-0.092,1.465-0.277s0.786-0.436,1.077-0.752c0.29-0.317,0.512-0.681,0.664-1.092
		c0.153-0.412,0.229-0.839,0.229-1.283c0-0.506-0.084-0.971-0.253-1.393c-0.169-0.422-0.406-0.781-0.712-1.077
		c-0.307-0.295-0.668-0.525-1.085-0.688s-0.879-0.246-1.386-0.246c-0.549,0-1.036,0.095-1.464,0.285s-0.786,0.44-1.077,0.752
		c-0.29,0.312-0.512,0.673-0.664,1.084C913.194,26.838,913.117,27.265,913.117,27.708z"/>
	<path d="M940.998,38.411h-2.755V28.263c0-1.224-0.229-2.14-0.688-2.747c-0.459-0.606-1.116-0.91-1.971-0.91
		c-0.37,0-0.716,0.05-1.037,0.15c-0.322,0.101-0.657,0.274-1.006,0.522c-0.348,0.248-0.729,0.583-1.14,1.005
		c-0.412,0.422-0.887,0.95-1.425,1.583v10.544h-2.755V16.041h2.755v6.475l-0.095,2.501c0.433-0.517,0.857-0.952,1.274-1.306
		c0.416-0.354,0.833-0.641,1.25-0.863s0.842-0.38,1.274-0.475c0.434-0.095,0.882-0.143,1.347-0.143c1.583,0,2.807,0.483,3.673,1.449
		c0.865,0.966,1.298,2.42,1.298,4.362V38.411z"/>
	<path d="M958.856,38.189c-0.623,0.158-1.267,0.271-1.932,0.34s-1.341,0.103-2.026,0.103c-1.995,0-3.483-0.451-4.465-1.354
		c-0.981-0.903-1.473-2.288-1.473-4.156v-8.296h-4.449v-2.312h4.449v-4.37l2.755-0.712v5.082h7.141v2.312h-7.141v8.074
		c0,1.14,0.303,1.993,0.91,2.557c0.606,0.565,1.501,0.847,2.684,0.847c0.507,0,1.061-0.04,1.662-0.119
		c0.602-0.079,1.229-0.203,1.885-0.372V38.189z"/>
	<path d="M995.286,30.178c0,1.415-0.198,2.649-0.594,3.705c-0.396,1.055-0.942,1.931-1.639,2.628s-1.52,1.219-2.47,1.567
		s-1.979,0.522-3.087,0.522c-0.507,0-1.011-0.026-1.513-0.079c-0.501-0.053-1.011-0.143-1.527-0.269v6.649h-2.755V22.516h2.454
		l0.174,2.66c0.792-1.087,1.636-1.85,2.533-2.288s1.868-0.657,2.913-0.657c0.908,0,1.704,0.19,2.391,0.57s1.262,0.916,1.726,1.607
		c0.465,0.691,0.813,1.525,1.045,2.501S995.286,28.975,995.286,30.178z M992.468,30.305c0-0.834-0.061-1.599-0.182-2.296
		c-0.122-0.696-0.314-1.292-0.578-1.789c-0.264-0.496-0.602-0.884-1.014-1.164c-0.411-0.279-0.902-0.419-1.472-0.419
		c-0.349,0-0.702,0.055-1.062,0.166c-0.358,0.111-0.73,0.296-1.115,0.554c-0.386,0.259-0.792,0.602-1.22,1.029
		c-0.428,0.427-0.884,0.958-1.369,1.591v7.71c0.507,0.211,1.039,0.377,1.599,0.499c0.56,0.122,1.108,0.182,1.646,0.182
		c1.488,0,2.654-0.504,3.499-1.512S992.468,32.332,992.468,30.305z"/>
	<path d="M1009.741,38.411l-0.063-2.137c-0.865,0.855-1.744,1.472-2.636,1.852c-0.893,0.38-1.829,0.57-2.811,0.57
		c-0.908,0-1.684-0.116-2.327-0.349c-0.645-0.232-1.175-0.551-1.592-0.958s-0.723-0.884-0.918-1.433
		c-0.195-0.548-0.293-1.145-0.293-1.789c0-1.593,0.594-2.842,1.781-3.744s2.942-1.354,5.265-1.354h3.293v-1.394
		c0-0.939-0.301-1.691-0.902-2.256c-0.602-0.564-1.521-0.847-2.755-0.847c-0.897,0-1.781,0.101-2.652,0.301
		c-0.87,0.201-1.771,0.486-2.699,0.855v-2.485c0.349-0.127,0.736-0.251,1.164-0.372c0.427-0.122,0.878-0.23,1.354-0.325
		c0.475-0.095,0.971-0.171,1.488-0.229c0.517-0.058,1.039-0.087,1.567-0.087c0.96,0,1.825,0.106,2.596,0.317
		c0.771,0.211,1.423,0.533,1.956,0.966c0.532,0.433,0.941,0.976,1.227,1.63c0.285,0.655,0.428,1.425,0.428,2.312v10.956H1009.741z
		 M1009.44,31.176h-3.499c-0.687,0-1.277,0.069-1.773,0.206s-0.902,0.333-1.219,0.585c-0.316,0.253-0.552,0.557-0.705,0.911
		c-0.152,0.354-0.229,0.752-0.229,1.195c0,0.306,0.048,0.599,0.143,0.878c0.095,0.28,0.248,0.528,0.459,0.744
		c0.211,0.217,0.485,0.388,0.823,0.515s0.75,0.19,1.235,0.19c0.633,0,1.358-0.192,2.177-0.578s1.681-0.995,2.589-1.829V31.176z"/>
	<path d="M1030.165,38.189c-0.623,0.158-1.267,0.271-1.932,0.34s-1.341,0.103-2.026,0.103c-1.995,0-3.483-0.451-4.465-1.354
		c-0.981-0.903-1.473-2.288-1.473-4.156v-8.296h-4.449v-2.312h4.449v-4.37l2.755-0.712v5.082h7.141v2.312h-7.141v8.074
		c0,1.14,0.303,1.993,0.91,2.557c0.606,0.565,1.501,0.847,2.684,0.847c0.507,0,1.061-0.04,1.662-0.119
		c0.602-0.079,1.229-0.203,1.885-0.372V38.189z"/>
	<path d="M1047.96,38.411h-2.755V28.263c0-1.224-0.229-2.14-0.688-2.747c-0.459-0.606-1.116-0.91-1.971-0.91
		c-0.37,0-0.716,0.05-1.037,0.15c-0.322,0.101-0.657,0.274-1.006,0.522c-0.348,0.248-0.729,0.583-1.14,1.005
		c-0.412,0.422-0.887,0.95-1.425,1.583v10.544h-2.755V16.041h2.755v6.475l-0.095,2.501c0.433-0.517,0.857-0.952,1.274-1.306
		c0.416-0.354,0.833-0.641,1.25-0.863s0.842-0.38,1.274-0.475c0.434-0.095,0.882-0.143,1.347-0.143c1.583,0,2.807,0.483,3.673,1.449
		c0.865,0.966,1.298,2.42,1.298,4.362V38.411z"/>
</g>
<g>
	<path d="M1131.602,20.093h-4.766v-2.375h12.381v2.375h-4.765v15.912h4.765v2.406h-12.381v-2.406h4.766V20.093z"/>
	<path d="M1144.474,22.516h2.454l0.11,2.565c0.465-0.549,0.913-1.005,1.346-1.37s0.857-0.657,1.274-0.878
		c0.417-0.222,0.842-0.377,1.274-0.467c0.434-0.089,0.882-0.135,1.347-0.135c1.636,0,2.873,0.483,3.712,1.449
		c0.84,0.966,1.259,2.42,1.259,4.362v10.37h-2.755V28.263c0-1.245-0.232-2.166-0.696-2.763c-0.465-0.596-1.156-0.895-2.074-0.895
		c-0.338,0-0.668,0.05-0.989,0.15c-0.322,0.101-0.657,0.274-1.006,0.522c-0.348,0.248-0.726,0.583-1.132,1.005
		c-0.406,0.422-0.862,0.95-1.369,1.583v10.544h-2.755V22.516z"/>
	<path d="M1175.109,38.189c-0.623,0.158-1.267,0.271-1.932,0.34s-1.341,0.103-2.026,0.103c-1.995,0-3.483-0.451-4.465-1.354
		c-0.981-0.903-1.473-2.288-1.473-4.156v-8.296h-4.449v-2.312h4.449v-4.37l2.755-0.712v5.082h7.141v2.312h-7.141v8.074
		c0,1.14,0.303,1.993,0.91,2.557c0.606,0.565,1.501,0.847,2.684,0.847c0.507,0,1.061-0.04,1.662-0.119
		c0.602-0.079,1.229-0.203,1.885-0.372V38.189z"/>
	<path d="M1193.554,29.625c0,0.391-0.006,0.718-0.016,0.981c-0.011,0.264-0.026,0.512-0.048,0.744h-11.162
		c0,1.625,0.454,2.874,1.362,3.744c0.907,0.871,2.216,1.306,3.926,1.306c0.465,0,0.929-0.018,1.394-0.055
		c0.464-0.037,0.913-0.087,1.346-0.15c0.433-0.063,0.847-0.135,1.243-0.214c0.396-0.079,0.762-0.167,1.1-0.261v2.264
		c-0.749,0.211-1.597,0.382-2.541,0.514s-1.923,0.198-2.937,0.198c-1.361,0-2.533-0.185-3.515-0.554
		c-0.981-0.37-1.787-0.905-2.414-1.607c-0.629-0.702-1.093-1.562-1.394-2.581s-0.451-2.172-0.451-3.459
		c0-1.119,0.16-2.177,0.482-3.174s0.792-1.874,1.409-2.628c0.617-0.754,1.375-1.354,2.272-1.797
		c0.896-0.443,1.915-0.665,3.056-0.665c1.107,0,2.09,0.174,2.944,0.522c0.854,0.349,1.575,0.842,2.161,1.48s1.029,1.415,1.33,2.327
		C1193.403,27.474,1193.554,28.495,1193.554,29.625z M1190.688,29.229c0.032-0.707-0.037-1.354-0.205-1.939
		c-0.169-0.586-0.431-1.09-0.784-1.512c-0.354-0.422-0.794-0.752-1.322-0.989c-0.527-0.237-1.14-0.356-1.836-0.356
		c-0.602,0-1.15,0.117-1.646,0.349s-0.924,0.56-1.282,0.981c-0.359,0.422-0.649,0.929-0.871,1.52s-0.359,1.24-0.412,1.947H1190.688z
		"/>
	<path d="M1198.604,22.516h2.517l0.079,2.929c0.939-1.129,1.866-1.948,2.779-2.454c0.912-0.507,1.833-0.76,2.763-0.76
		c1.646,0,2.895,0.533,3.744,1.599c0.85,1.066,1.242,2.649,1.18,4.75h-2.787c0.032-1.394-0.171-2.404-0.609-3.032
		c-0.438-0.628-1.079-0.942-1.924-0.942c-0.369,0-0.741,0.066-1.116,0.198c-0.374,0.132-0.76,0.343-1.155,0.633
		c-0.396,0.291-0.815,0.663-1.259,1.116c-0.443,0.454-0.918,1.003-1.425,1.646v10.212h-2.786V22.516z"/>
	<path d="M1228.59,38.189c-0.623,0.158-1.267,0.271-1.932,0.34s-1.341,0.103-2.026,0.103c-1.995,0-3.483-0.451-4.465-1.354
		c-0.981-0.903-1.473-2.288-1.473-4.156v-8.296h-4.449v-2.312h4.449v-4.37l2.755-0.712v5.082h7.141v2.312h-7.141v8.074
		c0,1.14,0.303,1.993,0.91,2.557c0.606,0.565,1.501,0.847,2.684,0.847c0.507,0,1.061-0.04,1.662-0.119
		c0.602-0.079,1.229-0.203,1.885-0.372V38.189z"/>
	<path d="M1248.332,22.516l-2.312,15.896h-3.341l-2.295-6.649l-0.459-1.615l-0.522,1.709l-2.201,6.555h-3.245l-2.296-15.896h2.691
		l1.33,10.797l0.285,2.407l0.681-2.106l2.312-7.14h1.979l2.485,7.045l0.713,2.105l0.237-2.232l1.235-10.877H1248.332z"/>
	<path d="M1256.85,24.795h-4.702v-2.28h7.489v13.6h4.733v2.296h-12.745v-2.296h5.225V24.795z M1257.815,15.85
		c0.307,0,0.592,0.056,0.855,0.167s0.493,0.267,0.688,0.467c0.195,0.201,0.349,0.43,0.459,0.689
		c0.111,0.259,0.166,0.541,0.166,0.847c0,0.295-0.055,0.575-0.166,0.839c-0.11,0.264-0.264,0.496-0.459,0.697
		s-0.425,0.356-0.688,0.467s-0.549,0.167-0.855,0.167c-0.306,0-0.591-0.056-0.854-0.167s-0.493-0.266-0.688-0.467
		s-0.349-0.433-0.459-0.697c-0.111-0.264-0.167-0.543-0.167-0.839c0-0.306,0.056-0.588,0.167-0.847
		c0.11-0.259,0.264-0.488,0.459-0.689c0.195-0.2,0.425-0.356,0.688-0.467S1257.51,15.85,1257.815,15.85z"/>
	<path d="M1269.263,22.516h2.454l0.11,2.565c0.465-0.549,0.913-1.005,1.346-1.37s0.857-0.657,1.274-0.878
		c0.417-0.222,0.842-0.377,1.274-0.467c0.434-0.089,0.882-0.135,1.347-0.135c1.636,0,2.873,0.483,3.712,1.449
		c0.84,0.966,1.259,2.42,1.259,4.362v10.37h-2.755V28.263c0-1.245-0.232-2.166-0.696-2.763c-0.465-0.596-1.156-0.895-2.074-0.895
		c-0.338,0-0.668,0.05-0.989,0.15c-0.322,0.101-0.657,0.274-1.006,0.522c-0.348,0.248-0.726,0.583-1.132,1.005
		c-0.406,0.422-0.862,0.95-1.369,1.583v10.544h-2.755V22.516z"/>
	<path d="M1300.516,29.625c0,0.391-0.006,0.718-0.016,0.981c-0.011,0.264-0.026,0.512-0.048,0.744h-11.162
		c0,1.625,0.454,2.874,1.362,3.744c0.907,0.871,2.216,1.306,3.926,1.306c0.465,0,0.929-0.018,1.394-0.055
		c0.464-0.037,0.913-0.087,1.346-0.15c0.433-0.063,0.847-0.135,1.243-0.214c0.396-0.079,0.762-0.167,1.1-0.261v2.264
		c-0.749,0.211-1.597,0.382-2.541,0.514s-1.923,0.198-2.937,0.198c-1.361,0-2.533-0.185-3.515-0.554
		c-0.981-0.37-1.787-0.905-2.414-1.607c-0.629-0.702-1.093-1.562-1.394-2.581s-0.451-2.172-0.451-3.459
		c0-1.119,0.16-2.177,0.482-3.174s0.792-1.874,1.409-2.628c0.617-0.754,1.375-1.354,2.272-1.797
		c0.896-0.443,1.915-0.665,3.056-0.665c1.107,0,2.09,0.174,2.944,0.522c0.854,0.349,1.575,0.842,2.161,1.48s1.029,1.415,1.33,2.327
		C1300.365,27.474,1300.516,28.495,1300.516,29.625z M1297.649,29.229c0.032-0.707-0.037-1.354-0.205-1.939
		c-0.169-0.586-0.431-1.09-0.784-1.512c-0.354-0.422-0.794-0.752-1.322-0.989c-0.527-0.237-1.14-0.356-1.836-0.356
		c-0.602,0-1.15,0.117-1.646,0.349s-0.924,0.56-1.282,0.981c-0.359,0.422-0.649,0.929-0.871,1.52s-0.359,1.24-0.412,1.947H1297.649z
		"/>
	<path d="M1304.108,30.796c0-1.351,0.185-2.551,0.555-3.602c0.369-1.05,0.895-1.937,1.575-2.66c0.681-0.723,1.498-1.271,2.454-1.646
		c0.955-0.375,2.019-0.562,3.189-0.562c0.507,0,1.006,0.032,1.496,0.095c0.491,0.063,0.974,0.164,1.449,0.301v-6.681h2.771v22.371
		h-2.47l-0.096-3.008c-0.771,1.119-1.604,1.948-2.501,2.486c-0.897,0.538-1.868,0.808-2.913,0.808c-0.908,0-1.707-0.19-2.398-0.57
		c-0.691-0.38-1.267-0.916-1.726-1.607c-0.459-0.691-0.806-1.522-1.037-2.494C1304.225,33.055,1304.108,31.978,1304.108,30.796z
		 M1306.927,30.622c0,1.921,0.282,3.354,0.847,4.298c0.564,0.945,1.364,1.417,2.398,1.417c0.697,0,1.434-0.311,2.209-0.934
		c0.775-0.623,1.591-1.546,2.446-2.771v-7.378c-0.454-0.211-0.956-0.372-1.504-0.482c-0.55-0.111-1.093-0.167-1.631-0.167
		c-1.499,0-2.668,0.486-3.507,1.457C1307.347,27.033,1306.927,28.553,1306.927,30.622z"/>
</g>
</svg>
